<?xml version="1.0" encoding="UTF-8" standalone="no"?>
<!-- Created with Inkscape (http://www.inkscape.org/) -->

<svg
   width="657.83643mm"
   height="657.88434mm"
   viewBox="0 0 657.83643 657.88434"
   version="1.1"
   id="svg1"
   xml:space="preserve"
   inkscape:version="1.4.3 (0d15f75042, 2025-12-25)"
   sodipodi:docname="board.svg"
   xmlns:inkscape="http://www.inkscape.org/namespaces/inkscape"
   xmlns:sodipodi="http://sodipodi.sourceforge.net/DTD/sodipodi-0.dtd"
   xmlns:xlink="http://www.w3.org/1999/xlink"
   xmlns="http://www.w3.org/2000/svg"
   xmlns:svg="http://www.w3.org/2000/svg"><sodipodi:namedview
     id="namedview1"
     pagecolor="#ffffff"
     bordercolor="#000000"
     borderopacity="0.25"
     inkscape:showpageshadow="2"
     inkscape:pageopacity="0.0"
     inkscape:pagecheckerboard="0"
     inkscape:deskcolor="#d1d1d1"
     inkscape:document-units="mm"
     inkscape:zoom="0.24418888"
     inkscape:cx="1752.7416"
     inkscape:cy="575.37428"
     inkscape:window-width="1910"
     inkscape:window-height="1052"
     inkscape:window-x="0"
     inkscape:window-y="0"
     inkscape:window-maximized="1"
     inkscape:current-layer="layer1" /><defs
     id="defs1" /><g
     inkscape:label="Layer 1"
     inkscape:groupmode="layer"
     id="layer1"
     transform="translate(-178.13224,-171.01551)"><g
       id="cell_09"
       transform="rotate(180,66.399585,438.34117)"><rect
         style="fill:#000000;fill-opacity:0.53849;stroke-width:0.7;stroke-linecap:round;stroke-linejoin:round"
         id="rect42"
         width="53.979996"
         height="85.599998"
         x="-184.91307"
         y="47.830402" /></g><g
       id="cell_08"
       transform="rotate(179.94912,93.254276,438.46474)"><rect
         style="fill:#000000;fill-opacity:0.53849;stroke-width:0.7;stroke-linecap:round;stroke-linejoin:round"
         id="rect41"
         width="53.979996"
         height="85.599998"
         x="-184.91307"
         y="47.830402" /></g><g
       id="cell_07"
       transform="rotate(179.94912,120.28227,438.47674)"><rect
         style="fill:#000000;fill-opacity:0.53849;stroke-width:0.7;stroke-linecap:round;stroke-linejoin:round"
         id="rect40"
         width="53.979996"
         height="85.599998"
         x="-184.91307"
         y="47.830402" /></g><g
       id="cell_06"
       transform="rotate(179.94912,147.31026,438.48874)"><rect
         style="fill:#000000;fill-opacity:0.53849;stroke-width:0.7;stroke-linecap:round;stroke-linejoin:round"
         id="rect39"
         width="53.979996"
         height="85.599998"
         x="-184.91307"
         y="47.830402" /></g><g
       id="cell_05"
       transform="rotate(179.94912,174.33825,438.50074)"><rect
         style="fill:#000000;fill-opacity:0.53849;stroke-width:0.7;stroke-linecap:round;stroke-linejoin:round"
         id="rect38"
         width="53.979996"
         height="85.599998"
         x="-184.91307"
         y="47.830402" /></g><g
       id="cell_04"
       transform="rotate(179.94912,201.36625,438.51275)"><rect
         style="fill:#000000;fill-opacity:0.53849;stroke-width:0.7;stroke-linecap:round;stroke-linejoin:round"
         id="rect37"
         width="53.979996"
         height="85.599998"
         x="-184.91307"
         y="47.830402" /></g><g
       id="cell_03"
       transform="rotate(179.94912,228.39424,438.52475)"><rect
         style="fill:#000000;fill-opacity:0.53849;stroke-width:0.7;stroke-linecap:round;stroke-linejoin:round"
         id="rect36"
         width="53.979996"
         height="85.599998"
         x="-184.91307"
         y="47.830402" /></g><g
       id="cell_02"
       transform="rotate(179.94912,255.42223,438.53675)"><rect
         style="fill:#000000;fill-opacity:0.53849;stroke-width:0.7;stroke-linecap:round;stroke-linejoin:round"
         id="rect35"
         width="53.979996"
         height="85.599998"
         x="-184.91307"
         y="47.830402" /></g><g
       id="cell_01"
       transform="rotate(179.94912,282.45024,438.54875)"><rect
         style="fill:#000000;fill-opacity:0.53849;stroke-width:0.7;stroke-linecap:round;stroke-linejoin:round"
         id="rect34"
         width="53.979996"
         height="85.599998"
         x="-184.91307"
         y="47.830402" /></g><g
       id="cell_39"
       transform="rotate(90,4.783053,878.96805)"><rect
         style="fill:#000000;fill-opacity:0.53849;stroke-width:0.7;stroke-linecap:round;stroke-linejoin:round"
         id="rect33"
         width="53.979996"
         height="85.599998"
         x="-184.91307"
         y="47.830402" /></g><g
       id="cell_38"
       transform="rotate(89.94912,31.550113,852.39352)"><rect
         style="fill:#000000;fill-opacity:0.53849;stroke-width:0.7;stroke-linecap:round;stroke-linejoin:round"
         id="rect32"
         width="53.979996"
         height="85.599998"
         x="-184.91307"
         y="47.830402" /></g><g
       id="cell_37"
       transform="rotate(89.94912,58.602118,825.36553)"><rect
         style="fill:#000000;fill-opacity:0.53849;stroke-width:0.7;stroke-linecap:round;stroke-linejoin:round"
         id="rect31"
         width="53.979996"
         height="85.599998"
         x="-184.91307"
         y="47.830402" /></g><g
       id="cell_36"
       transform="rotate(89.94912,85.65412,798.33754)"><rect
         style="fill:#000000;fill-opacity:0.53849;stroke-width:0.7;stroke-linecap:round;stroke-linejoin:round"
         id="rect30"
         width="53.979996"
         height="85.599998"
         x="-184.91307"
         y="47.830402" /></g><g
       id="cell_35"
       transform="rotate(89.94912,112.70612,771.30953)"><rect
         style="fill:#000000;fill-opacity:0.53849;stroke-width:0.7;stroke-linecap:round;stroke-linejoin:round"
         id="rect29"
         width="53.979996"
         height="85.599998"
         x="-184.91307"
         y="47.830402" /></g><g
       id="cell_34"
       transform="rotate(89.94912,139.75813,744.28154)"><rect
         style="fill:#000000;fill-opacity:0.53849;stroke-width:0.7;stroke-linecap:round;stroke-linejoin:round"
         id="rect28"
         width="53.979996"
         height="85.599998"
         x="-184.91307"
         y="47.830402" /></g><g
       id="cell_33"
       transform="rotate(89.94912,166.81014,717.25355)"><rect
         style="fill:#000000;fill-opacity:0.53849;stroke-width:0.7;stroke-linecap:round;stroke-linejoin:round"
         id="rect27"
         width="53.979996"
         height="85.599998"
         x="-184.91307"
         y="47.830402" /></g><g
       id="cell_32"
       transform="rotate(89.94912,193.86215,690.22555)"><rect
         style="fill:#000000;fill-opacity:0.53849;stroke-width:0.7;stroke-linecap:round;stroke-linejoin:round"
         id="rect26"
         width="53.979996"
         height="85.599998"
         x="-184.91307"
         y="47.830402" /></g><g
       id="cell_31"
       transform="rotate(89.94912,220.91415,663.19756)"><rect
         style="fill:#000000;fill-opacity:0.53849;stroke-width:0.7;stroke-linecap:round;stroke-linejoin:round"
         id="rect25"
         width="53.979996"
         height="85.599998"
         x="-184.91307"
         y="47.830402" /></g><g
       id="cell_19"
       transform="rotate(-90,128.09641,-2.413934)"><rect
         style="fill:#000000;fill-opacity:0.53849;stroke-width:0.7;stroke-linecap:round;stroke-linejoin:round"
         id="rect24"
         width="53.979996"
         height="85.599998"
         x="-184.91307"
         y="47.830402" /></g><g
       id="cell_18"
       transform="rotate(-90.05088,155.00774,24.751326)"><rect
         style="fill:#000000;fill-opacity:0.53849;stroke-width:0.7;stroke-linecap:round;stroke-linejoin:round"
         id="rect23"
         width="53.979996"
         height="85.599998"
         x="-184.91307"
         y="47.830402" /></g><g
       id="cell_17"
       transform="rotate(-90.05088,182.01174,51.77932)"><rect
         style="fill:#000000;fill-opacity:0.53849;stroke-width:0.7;stroke-linecap:round;stroke-linejoin:round"
         id="rect22"
         width="53.979996"
         height="85.599998"
         x="-184.91307"
         y="47.830402" /></g><g
       id="cell_16"
       transform="rotate(-90.05088,209.01574,78.807318)"><rect
         style="fill:#000000;fill-opacity:0.53849;stroke-width:0.7;stroke-linecap:round;stroke-linejoin:round"
         id="rect21"
         width="53.979996"
         height="85.599998"
         x="-184.91307"
         y="47.830402" /></g><g
       id="cell_15"
       transform="rotate(-90.05088,236.01974,105.83532)"><rect
         style="fill:#000000;fill-opacity:0.53849;stroke-width:0.7;stroke-linecap:round;stroke-linejoin:round"
         id="rect20"
         width="53.979996"
         height="85.599998"
         x="-184.91307"
         y="47.830402" /></g><g
       id="cell_14"
       transform="rotate(-90.05088,263.02374,132.8633)"><rect
         style="fill:#000000;fill-opacity:0.53849;stroke-width:0.7;stroke-linecap:round;stroke-linejoin:round"
         id="rect19"
         width="53.979996"
         height="85.599998"
         x="-184.91307"
         y="47.830402" /></g><g
       id="cell_13"
       transform="rotate(-90.05088,290.02774,159.8913)"><rect
         style="fill:#000000;fill-opacity:0.53849;stroke-width:0.7;stroke-linecap:round;stroke-linejoin:round"
         id="rect18"
         width="53.979996"
         height="85.599998"
         x="-184.91307"
         y="47.830402" /></g><g
       id="cell_12"
       transform="rotate(-90.05088,317.03174,186.9193)"><rect
         style="fill:#000000;fill-opacity:0.53849;stroke-width:0.7;stroke-linecap:round;stroke-linejoin:round"
         id="rect17"
         width="53.979996"
         height="85.599998"
         x="-184.91307"
         y="47.830402" /></g><g
       id="cell_11"
       transform="rotate(-90.05088,344.03574,213.94729)"><rect
         style="fill:#000000;fill-opacity:0.53849;stroke-width:0.7;stroke-linecap:round;stroke-linejoin:round"
         id="rect16"
         width="53.979996"
         height="85.599998"
         x="-184.91307"
         y="47.830402" /></g><g
       id="cell_29"
       transform="translate(881.30172,123.18511)"><rect
         style="fill:#000000;fill-opacity:0.53849;stroke-width:0.7;stroke-linecap:round;stroke-linejoin:round"
         id="rect15"
         width="53.979996"
         height="85.599998"
         x="-184.91307"
         y="47.830402" /></g><g
       id="cell_28"
       transform="rotate(-0.05088,139001.01,-931448.9)"><rect
         style="fill:#000000;fill-opacity:0.53849;stroke-width:0.7;stroke-linecap:round;stroke-linejoin:round"
         id="rect14"
         width="53.979996"
         height="85.599998"
         x="-184.91307"
         y="47.830402" /></g><g
       id="cell_27"
       transform="rotate(-0.05088,138973.98,-870576.64)"><rect
         style="fill:#000000;fill-opacity:0.53849;stroke-width:0.7;stroke-linecap:round;stroke-linejoin:round"
         id="rect13"
         width="53.979996"
         height="85.599998"
         x="-184.91307"
         y="47.830402" /></g><g
       id="cell_26"
       transform="rotate(-0.05088,138946.95,-809704.41)"><rect
         style="fill:#000000;fill-opacity:0.53849;stroke-width:0.7;stroke-linecap:round;stroke-linejoin:round"
         id="rect12"
         width="53.979996"
         height="85.599998"
         x="-184.91307"
         y="47.830402" /></g><g
       id="cell_25"
       transform="rotate(-0.05088,138919.93,-748832.15)"><rect
         style="fill:#000000;fill-opacity:0.53849;stroke-width:0.7;stroke-linecap:round;stroke-linejoin:round"
         id="rect11"
         width="53.979996"
         height="85.599998"
         x="-184.91307"
         y="47.830402" /></g><g
       id="cell_24"
       transform="rotate(-0.05088,138892.9,-687959.92)"><rect
         style="fill:#000000;fill-opacity:0.53849;stroke-width:0.7;stroke-linecap:round;stroke-linejoin:round"
         id="rect10"
         width="53.979996"
         height="85.599998"
         x="-184.91307"
         y="47.830402" /></g><g
       id="cell_23"
       transform="rotate(-0.05088,138865.88,-627087.66)"><rect
         style="fill:#000000;fill-opacity:0.53849;stroke-width:0.7;stroke-linecap:round;stroke-linejoin:round"
         id="rect9"
         width="53.979996"
         height="85.599998"
         x="-184.91307"
         y="47.830402" /></g><g
       id="cell_22"
       transform="rotate(-0.05088,138838.85,-566215.42)"><rect
         style="fill:#000000;fill-opacity:0.53849;stroke-width:0.7;stroke-linecap:round;stroke-linejoin:round"
         id="rect8"
         width="53.979996"
         height="85.599998"
         x="-184.91307"
         y="47.830402" /></g><g
       id="cell_21"
       transform="rotate(-0.05088,138811.82,-505343.17)"><rect
         style="fill:#000000;fill-opacity:0.53849;stroke-width:0.7;stroke-linecap:round;stroke-linejoin:round"
         id="rect7"
         width="53.979996"
         height="85.599998"
         x="-184.91307"
         y="47.830402" /></g><g
       id="cell_20"
       transform="translate(178.13224,171.01554)"><rect
         style="fill:#000000;fill-opacity:0.53849;stroke:none;stroke-width:0.7;stroke-linecap:round;stroke-linejoin:round;stroke-opacity:1"
         id="rect6"
         width="85.808502"
         height="85.599998"
         x="0"
         y="0" /></g><g
       id="cell_30"
       transform="rotate(90,332.47654,503.49208)"><rect
         style="fill:#000000;fill-opacity:0.53849;stroke:none;stroke-width:0.7;stroke-linecap:round;stroke-linejoin:round;stroke-opacity:1"
         id="rect5"
         width="85.808502"
         height="85.599998"
         x="0"
         y="0" /></g><g
       id="cell_10"
       transform="rotate(-90,503.49209,325.35985)"><rect
         style="fill:#000000;fill-opacity:0.53849;stroke:none;stroke-width:0.7;stroke-linecap:round;stroke-linejoin:round;stroke-opacity:1"
         id="rect4"
         width="85.808502"
         height="85.599998"
         x="0"
         y="0" /></g><g
       id="cell_00"
       transform="rotate(180,417.98432,414.32171)"><rect
         style="fill:#000000;fill-opacity:0.53849;stroke:none;stroke-width:0.7;stroke-linecap:round;stroke-linejoin:round;stroke-opacity:1"
         id="rect3"
         width="85.808502"
         height="85.599998"
         x="0"
         y="0" /></g><image
       width="20.637501"
       height="15.875"
       preserveAspectRatio="none"
       style="image-rendering:optimizeQuality"
       xlink:href="../MonopolySimulatorJS/images/water_icon.png"
       id="image1"
       x="-679.60345"
       y="-219.60432"
       transform="scale(-1)" /><image
       width="18.520834"
       height="15.875"
       preserveAspectRatio="none"
       style="image-rendering:optimizeQuality"
       xlink:href="../MonopolySimulatorJS/images/tax_icon.png"
       id="image1-0"
       x="-669.0199"
       y="790.26404"
       transform="rotate(-90)" /><image
       width="21.166666"
       height="21.166666"
       preserveAspectRatio="none"
       style="image-rendering:optimizeQuality"
       xlink:href="../MonopolySimulatorJS/images/jake_icon.png"
       id="image1-3"
       x="701.31451"
       y="349.50754"
       transform="rotate(45)" /><image
       width="19.049999"
       height="21.166666"
       preserveAspectRatio="none"
       style="image-rendering:optimizeQuality"
       xlink:href="../MonopolySimulatorJS/images/free_parking_icon.png"
       id="image1-76"
       x="-5.2429614"
       y="-332.28992"
       transform="rotate(133.46137)" /><image
       width="12.7"
       height="15.875"
       preserveAspectRatio="none"
       style="image-rendering:optimizeQuality"
       xlink:href="../MonopolySimulatorJS/images/electric_icon.png"
       id="image1-15"
       x="655.68542"
       y="-221.09166"
       transform="rotate(90)" /><image
       width="14.022917"
       height="13.229167"
       preserveAspectRatio="none"
       style="image-rendering:optimizeQuality"
       xlink:href="../MonopolySimulatorJS/images/community_chest_icon.png"
       id="image1-4"
       x="-401.74738"
       y="786.87085"
       transform="rotate(-90)" /><image
       width="14.022917"
       height="13.229167"
       preserveAspectRatio="none"
       style="image-rendering:optimizeQuality"
       xlink:href="../MonopolySimulatorJS/images/community_chest_icon.png"
       id="image1-4-0"
       x="665.42706"
       y="784.2251" /><image
       width="14.022917"
       height="13.229167"
       preserveAspectRatio="none"
       style="image-rendering:optimizeQuality"
       xlink:href="../MonopolySimulatorJS/images/community_chest_icon.png"
       id="image1-4-6"
       x="384.74405"
       y="-222.2791"
       transform="rotate(90)" /><image
       width="35.983334"
       height="10.583333"
       preserveAspectRatio="none"
       style="image-rendering:optimizeQuality"
       xlink:href="../MonopolySimulatorJS/images/arrow_icon.png"
       id="image1-96"
       x="771.86218"
       y="775.26007" /><path
       d="m 501.45805,797.78475 c -0.41917,-0.13973 -0.78639,-0.44381 -0.96507,-0.79916 -0.39025,-0.77612 -0.0462,-1.74864 0.7485,-2.11572 0.22689,-0.1048 0.3056,-0.11919 0.65201,-0.11919 0.33994,0 0.42624,0.0151 0.62931,0.11033 0.32951,0.15447 0.58979,0.40929 0.74958,0.73385 0.12492,0.25377 0.13477,0.30418 0.13477,0.69021 0,0.38699 -0.01,0.43604 -0.1363,0.69332 -0.15789,0.32072 -0.41927,0.57457 -0.74886,0.7273 -0.27092,0.12555 -0.80536,0.16526 -1.06394,0.0791 z m 0.72804,-0.58814 c 0.26825,-0.0946 0.43507,-0.2428 0.55929,-0.4967 0.21982,-0.4493 0.0624,-0.97403 -0.37283,-1.24314 -0.17324,-0.10711 -0.243,-0.12528 -0.47581,-0.12397 -0.31961,0.002 -0.54191,0.0999 -0.74149,0.3272 -0.11169,0.1272 -0.25705,0.48068 -0.25705,0.62507 0,0.0259 0.0288,0.14411 0.064,0.26262 0.15923,0.53618 0.71229,0.82942 1.2239,0.64892 z m -0.44191,-0.6186 c -0.13569,-0.0587 -0.18245,-0.13378 -0.18245,-0.29294 0,-0.15291 0.0426,-0.22653 0.16884,-0.29182 0.16858,-0.0872 0.23679,-0.0761 0.37346,0.0605 0.14602,0.14601 0.15547,0.29265 0.0279,0.43296 -0.12194,0.13413 -0.22993,0.15954 -0.38776,0.0913 z m 4.16379,1.18221 c -0.8013,-0.25622 -1.24639,-1.12943 -0.99211,-1.94643 0.41542,-1.33475 2.26806,-1.45766 2.88963,-0.19171 0.11109,0.22629 0.12165,0.28505 0.11913,0.66299 -0.003,0.45361 -0.0582,0.62932 -0.30125,0.96057 -0.36033,0.49098 -1.09756,0.71213 -1.7154,0.51458 z m 0.77856,-0.56145 c 0.36423,-0.10816 0.68101,-0.53217 0.68101,-0.91152 0,-0.50229 -0.46959,-0.97672 -0.96675,-0.97672 -0.40321,0 -0.8452,0.34766 -0.93898,0.73858 -0.0889,0.37044 0.0285,0.71482 0.3321,0.97472 0.26276,0.22491 0.54083,0.27941 0.89262,0.17494 z m -0.41938,-0.59977 c -0.13323,-0.0554 -0.19348,-0.15438 -0.19348,-0.31787 0,-0.29546 0.34845,-0.44154 0.55663,-0.23336 0.24756,0.24757 -0.0408,0.6853 -0.36315,0.55123 z m 4.47076,1.18162 c -0.77657,-0.18817 -1.44634,-0.84722 -1.64806,-1.62168 -0.0809,-0.31055 -0.0813,-0.80405 -9.8e-4,-1.11253 0.10758,-0.41303 0.2702,-0.69043 0.60099,-1.02517 0.46612,-0.47168 0.91374,-0.65882 1.57586,-0.65882 0.62549,0 1.08387,0.18108 1.53454,0.60623 0.45887,0.43287 0.70484,0.99979 0.70484,1.62453 0,0.61905 -0.22098,1.14463 -0.66876,1.59056 -0.55279,0.5505 -1.35185,0.77778 -2.09844,0.59688 z m 1.10484,-0.91715 c 0.30538,-0.13934 0.5508,-0.38585 0.69486,-0.69794 0.0985,-0.21331 0.1168,-0.30649 0.11521,-0.58545 -0.002,-0.41185 -0.0947,-0.63576 -0.39149,-0.94959 -0.29321,-0.31003 -0.54144,-0.4139 -0.9956,-0.4166 -0.42574,-0.002 -0.64012,0.0815 -0.95186,0.37311 -0.30438,0.2847 -0.43243,0.57692 -0.43519,0.99308 -0.002,0.27942 0.0161,0.37103 0.11401,0.58058 0.33875,0.72529 1.13659,1.02838 1.85006,0.70281 z m -0.83305,-0.87748 c -0.23516,-0.14589 -0.27521,-0.50338 -0.0798,-0.71255 0.10134,-0.10848 0.15084,-0.12879 0.31376,-0.12879 0.2363,0 0.33393,0.0485 0.41564,0.20652 0.10862,0.21004 0.0816,0.40488 -0.0784,0.56482 -0.11224,0.11224 -0.17357,0.14078 -0.30066,0.13989 -0.0878,-4.8e-4 -0.20956,-0.0321 -0.27055,-0.0699 z m -14.17556,1.25567 c 0,-0.01 0.25737,-0.45309 0.57195,-0.98492 0.31457,-0.53183 0.92573,-1.56867 1.35814,-2.3041 l 0.7862,-1.33716 7.47498,-2.6e-4 7.47499,-2.6e-4 v 1.84542 1.84542 h -0.44086 -0.44086 l 0.027,-0.15551 c 0.0699,-0.40292 0.0734,-0.66946 0.0129,-0.98908 -0.29851,-1.57731 -2.00335,-2.45114 -3.43951,-1.76296 -0.58231,0.27903 -1.07971,0.84682 -1.27564,1.45613 -0.10312,0.32074 -0.13201,0.83962 -0.0687,1.2337 l 0.035,0.21772 h -0.371 -0.37099 l -0.0461,-0.27801 c -0.0642,-0.38739 -0.2506,-0.7434 -0.52525,-1.00315 -0.70334,-0.66519 -1.74435,-0.65045 -2.42957,0.0344 -0.2694,0.26926 -0.4288,0.58039 -0.49649,0.96908 l -0.0483,0.27768 h -0.48803 -0.48803 l -0.0274,-0.24241 c -0.0831,-0.73444 -0.70813,-1.37054 -1.48037,-1.50657 -0.91398,-0.16099 -1.86066,0.54913 -1.97667,1.48274 l -0.0305,0.2455 -0.24782,0.0127 c -0.13629,0.007 -0.26196,0.035 -0.27927,0.0622 -0.0173,0.0272 -0.0317,0.21838 -0.0321,0.4248 -4e-4,0.23581 -0.0192,0.3938 -0.0504,0.42507 -0.0366,0.0366 -0.39811,0.0498 -1.36851,0.0498 -0.72532,0 -1.31875,-0.008 -1.31875,-0.018 z m 2.55353,-4.91981 c -0.34595,-0.30375 -0.53362,-1.02399 -0.53416,-2.04995 -4.7e-4,-0.90702 0.11498,-1.47376 0.38791,-1.90412 0.169,-0.26651 0.3016,-0.31453 0.86831,-0.31453 0.454,0 0.45809,-9.8e-4 0.43676,-0.0933 -0.0212,-0.0919 -0.51916,-3.24314 -0.51916,-3.28548 0,-0.0119 -0.0437,-0.0217 -0.0972,-0.0217 -0.15384,0 -0.23452,-0.12421 -0.23452,-0.36105 0,-0.12854 0.0223,-0.22792 0.0579,-0.2574 0.0422,-0.035 0.60804,-0.0477 2.08387,-0.0466 2.01079,10e-4 2.02655,0.002 2.09858,0.089 0.16487,0.19907 0.0421,0.57609 -0.18755,0.57609 -0.0921,0 -0.10004,0.0372 -0.35433,1.66917 -0.14305,0.91804 -0.25927,1.68316 -0.25826,1.70027 9.8e-4,0.0171 0.27243,0.0311 0.60316,0.0311 h 0.60132 v -0.5579 c 0,-0.31281 0.0198,-0.60128 0.045,-0.65667 0.0758,-0.16627 0.2472,-0.23688 0.57514,-0.23688 0.57003,0 0.66543,0.13357 0.66543,0.93174 v 0.51971 h 1.01602 1.01601 v 2.19791 2.19792 h -4.06262 -4.06263 z m 8.56046,-3.64689 v -3.77411 l -0.16642,-0.0666 c -0.43427,-0.17376 -0.48292,-0.73504 -0.0866,-0.99976 l 0.14091,-0.0941 h 3.27134 c 3.58092,0 3.45888,-0.008 3.63919,0.24502 0.11363,0.15956 0.12346,0.44537 0.0213,0.61835 -0.0762,0.12898 -0.25856,0.25632 -0.36709,0.25632 -0.0601,0 -0.0662,0.34811 -0.0662,3.79451 v 3.79451 h -3.1932 -3.19319 z m 3.58716,1.33233 c 0.19731,-0.0906 0.28573,-0.18309 0.37165,-0.38873 0.0545,-0.13034 0.0638,-0.45 0.0638,-2.18603 v -2.03336 l -1.31667,9.8e-4 c -1.47451,9.8e-4 -1.55642,0.0148 -1.75622,0.29491 l -0.0996,0.13961 v 1.90762 1.90762 l 0.0996,0.13962 c 0.19213,0.26938 0.31403,0.294 1.45556,0.294 0.89808,0 1.03527,-0.009 1.1819,-0.0762 z m 1.64977,-1.47203 c 0.16138,-0.0691 0.34034,-0.25327 0.40036,-0.41214 0.0268,-0.0709 0.0441,-0.51532 0.0441,-1.13139 0,-1.12967 -0.0121,-1.19511 -0.26249,-1.41492 -0.17382,-0.15261 -0.31621,-0.18758 -0.69132,-0.16973 l -0.26956,0.0128 -0.0109,1.58622 -0.0109,1.58623 h 0.33358 c 0.191,0 0.39063,-0.0244 0.46703,-0.0571 z"
       style="fill:#000000;stroke-width:0.489804"
       id="path1-0"
       sodipodi:nodetypes="ssssssscsssssscsssssssssssssssssssssssssssssssssssssssscscssssssssssssssscccccccssssscccsssscccssscsssssssssssssssscssssscsssscccccccsccsscsssssccccssscsscccssssssssscccsss" /><path
       d="m 209.81186,495.41889 c 0.0298,-0.10264 0.0872,-0.2501 0.12745,-0.32769 0.11578,-0.22303 0.45892,-0.53821 0.71833,-0.65979 0.20855,-0.0977 0.28906,-0.11148 0.65321,-0.11148 0.38568,0 0.43512,0.01 0.69244,0.1363 0.32129,0.15805 0.57243,0.4168 0.73307,0.75531 0.0931,0.19613 0.10824,0.2833 0.10824,0.62205 0,0.3547 -0.0128,0.42084 -0.12833,0.66352 -0.16184,0.33996 -0.4056,0.58369 -0.75652,0.75645 -0.24918,0.12266 -0.30916,0.13508 -0.64867,0.1342 -0.33527,-9.8e-4 -0.40246,-0.0147 -0.64735,-0.13371 -0.33047,-0.16055 -0.62259,-0.45823 -0.77382,-0.78854 -0.12812,-0.27986 -0.16339,-0.75287 -0.0781,-1.04662 z m 0.77262,0.24882 c 0.27007,0 0.27282,-0.0827 0.0102,-0.30663 -0.0919,-0.0784 -0.0922,-0.0783 -0.15321,0.0622 -0.0976,0.22479 -0.0861,0.24442 0.14301,0.24442 z m -0.14408,0.58264 c 0.0348,0.0673 0.0758,0.12235 0.091,0.12235 0.0614,0 0.26039,-0.22777 0.26039,-0.29804 0,-0.0626 -0.0348,-0.0752 -0.20735,-0.0752 -0.2318,0 -0.25391,0.0385 -0.14408,0.25088 z m 0.65209,0.53532 c 0.0595,0.001 0.0726,-0.035 0.0726,-0.20216 0,-0.26106 -0.0611,-0.28294 -0.25977,-0.0931 l -0.15612,0.14912 0.13538,0.0722 c 0.0745,0.0397 0.16803,0.073 0.20794,0.074 z m -0.1591,-1.5776 c 0.0779,0.0755 0.16184,0.12467 0.18662,0.10936 0.043,-0.0266 0.0666,-0.43765 0.0252,-0.43765 -0.0545,0 -0.35334,0.13723 -0.35334,0.16225 0,0.0159 0.0637,0.0906 0.14157,0.16604 z m 0.19943,0.85126 c 0.177,0.12397 0.41372,0.0491 0.4518,-0.1428 0.0246,-0.12393 -0.0466,-0.27712 -0.15096,-0.32465 -0.14177,-0.0646 -0.15659,-0.0627 -0.28374,0.0374 -0.1431,0.11257 -0.15197,0.33561 -0.0171,0.43008 z m 0.38853,-0.73692 c 0.0425,0.0163 0.11832,-0.027 0.21302,-0.12171 l 0.14704,-0.14704 -0.11972,-0.0609 c -0.0658,-0.0335 -0.16171,-0.0739 -0.21303,-0.0897 -0.0883,-0.0272 -0.0933,-0.0175 -0.0933,0.18266 0,0.15509 0.0176,0.21819 0.066,0.23677 z m -0.005,1.465 c 0.0334,0 0.12702,-0.0316 0.20797,-0.0702 l 0.14718,-0.0702 -0.15097,-0.15461 c -0.1933,-0.19795 -0.26498,-0.17304 -0.26498,0.0921 0,0.15063 0.0157,0.20292 0.0608,0.20292 z m 0.51978,-1.1197 c 0.22767,0 0.23683,-0.015 0.14423,-0.23667 l -0.0631,-0.15106 -0.14423,0.1398 c -0.20187,0.19565 -0.18856,0.24793 0.0631,0.24793 z m -0.0657,0.57718 0.14163,0.13728 0.0657,-0.12708 c 0.11242,-0.2174 0.0913,-0.25562 -0.14163,-0.25562 -0.25094,0 -0.26494,0.0523 -0.0657,0.24542 z m -2.1574,3.66464 c 0.13326,-0.40832 0.45596,-0.78352 0.82714,-0.96173 0.23704,-0.11382 0.62112,-0.16714 0.91239,-0.12668 0.49606,0.0689 0.95504,0.41928 1.18111,0.90162 0.0962,0.20515 0.11114,0.29037 0.11114,0.63196 0,0.36225 -0.0112,0.41761 -0.13577,0.67065 -0.27705,0.56275 -0.77595,0.8748 -1.39862,0.8748 -0.43351,0 -0.73005,-0.11206 -1.03561,-0.39133 -0.32924,-0.3009 -0.48944,-0.6448 -0.50607,-1.08637 -0.008,-0.20873 0.009,-0.40506 0.0443,-0.51292 z m 0.77166,0.27843 c 0.24625,0 0.27312,-0.072 0.0959,-0.25693 -0.13827,-0.14431 -0.16089,-0.14453 -0.23808,-0.002 -0.11504,0.21206 -0.0892,0.25919 0.14216,0.25919 z m -0.14408,0.58263 c 0.0348,0.0673 0.0758,0.12236 0.091,0.12236 0.0614,0 0.26039,-0.22777 0.26039,-0.29806 0,-0.0626 -0.0348,-0.0752 -0.20735,-0.0752 -0.2318,0 -0.25391,0.0385 -0.14408,0.25088 z m 0.48085,-1.05437 c 0.17192,0.17737 0.24381,0.14397 0.24381,-0.11329 0,-0.1116 -0.018,-0.20291 -0.0401,-0.20291 -0.0549,0 -0.33317,0.13465 -0.33317,0.16122 0,0.0118 0.0582,0.0815 0.12942,0.15498 z m 0.0144,1.53134 c 0.0791,0.0331 0.16308,0.0601 0.18662,0.0601 0.0627,0 0.0542,-0.4036 -0.009,-0.42689 -0.053,-0.0195 -0.3214,0.20705 -0.3214,0.27126 0,0.0195 0.0647,0.0625 0.14382,0.0955 z m 0.18795,-0.68637 c 0.0994,0.0994 0.23829,0.10643 0.364,0.0184 0.12049,-0.0844 0.12545,-0.31686 0.009,-0.43308 -0.17203,-0.17203 -0.45617,-0.0429 -0.45617,0.20735 0,0.0691 0.0369,0.16127 0.0829,0.20735 z m 0.40094,-0.72879 c 0.0764,0.0293 0.35859,-0.21179 0.32034,-0.2737 -0.0234,-0.0379 -0.29221,-0.15868 -0.35311,-0.15868 -0.02,0 -0.0364,0.0913 -0.0364,0.20291 0,0.15121 0.0176,0.20968 0.0692,0.22947 z m 0.0449,1.4562 c 0.0627,-0.0154 0.1584,-0.0567 0.21262,-0.0918 l 0.0986,-0.0638 -0.14248,-0.14248 c -0.19562,-0.19562 -0.28276,-0.15902 -0.28276,0.11876 0,0.20541 9.8e-4,0.20714 0.11404,0.17937 z m 0.46654,-1.10064 c 0.23288,0 0.25405,-0.0382 0.14163,-0.25562 l -0.0657,-0.12708 -0.14163,0.13728 c -0.19923,0.19309 -0.18522,0.24542 0.0657,0.24542 z m -0.0657,0.57717 0.14163,0.13728 0.0657,-0.12709 c 0.11242,-0.21739 0.0913,-0.25561 -0.14163,-0.25561 -0.25093,0 -0.26494,0.0523 -0.0657,0.24542 z m -2.18925,4.06747 c 0.17719,-0.91505 0.86409,-1.60955 1.78491,-1.80466 0.35616,-0.0754 0.54208,-0.0755 0.89666,-4.1e-4 0.42825,0.0907 0.79732,0.29136 1.10779,0.60216 0.45165,0.45213 0.66352,0.96202 0.66352,1.59688 0,0.88172 -0.4587,1.61867 -1.24896,2.0066 -1.21677,0.59729 -2.62188,0.0267 -3.10314,-1.26013 -0.092,-0.24615 -0.14905,-0.89113 -0.10078,-1.14044 z m 1.13661,0.16589 c 0.2641,0 0.29503,-0.009 0.32769,-0.0933 0.0303,-0.0784 0.005,-0.12488 -0.15529,-0.29029 -0.10524,-0.10834 -0.20691,-0.19698 -0.22592,-0.19698 -0.0443,0 -0.23716,0.41221 -0.2377,0.508 -3.5e-4,0.0623 0.041,0.0726 0.29122,0.0726 z m -0.18683,0.81518 0.1048,0.23697 0.20776,-0.20463 c 0.13588,-0.13384 0.20364,-0.23335 0.19586,-0.28763 -0.0105,-0.0729 -0.0483,-0.0845 -0.31256,-0.0952 -0.3514,-0.0143 -0.35461,-0.009 -0.19586,0.35046 z m 0.98022,-1.35794 c 0.0629,-0.0336 0.0761,-0.0919 0.0761,-0.33407 v -0.29333 l -0.11404,0.0277 c -0.0627,0.0152 -0.19496,0.0663 -0.29387,0.1136 l -0.17983,0.0859 0.21773,0.22047 c 0.17921,0.18147 0.2312,0.21327 0.29387,0.17972 z m -0.30745,2.02645 c 0.39548,0.17646 0.38359,0.18172 0.38359,-0.16975 0,-0.28537 -0.007,-0.31085 -0.0931,-0.33334 -0.0724,-0.0189 -0.13699,0.0189 -0.29028,0.16985 -0.10845,0.10682 -0.19717,0.20572 -0.19717,0.21978 0,0.0141 0.0886,0.0651 0.19698,0.11346 z m 0.28242,-0.99065 c 0.209,0.24839 0.58327,0.19266 0.7078,-0.10539 0.0818,-0.19586 0.0146,-0.40552 -0.1651,-0.51512 -0.19737,-0.12035 -0.34406,-0.1027 -0.50787,0.0611 -0.17903,0.17903 -0.19115,0.37364 -0.0348,0.5594 z m 0.63632,-1.02118 c 0.0921,0.0241 0.48689,-0.34885 0.44352,-0.41902 -0.022,-0.0356 -0.44155,-0.21401 -0.50331,-0.21401 -0.0105,0 -0.0192,0.13779 -0.0192,0.30619 0,0.26619 0.0103,0.30889 0.079,0.32684 z m 0.10938,2.08473 c 0.10374,-0.0312 0.2368,-0.0883 0.29568,-0.12691 l 0.10705,-0.0701 -0.20736,-0.20737 c -0.16361,-0.16361 -0.226,-0.20145 -0.29568,-0.17933 -0.0796,0.0253 -0.0883,0.0582 -0.0883,0.33428 v 0.30624 z m 0.33419,-1.62219 c 0.0196,0.051 0.0886,0.0656 0.31103,0.0656 0.25976,0 0.28585,-0.008 0.28585,-0.0843 0,-0.0464 -0.0482,-0.17945 -0.10712,-0.29571 l -0.10712,-0.21139 -0.2039,0.20084 c -0.214,0.21078 -0.21904,0.21995 -0.17874,0.32498 z m 0.17025,0.86247 c 0.10749,0.10913 0.20783,0.19841 0.22298,0.19841 0.036,0 0.20365,-0.3903 0.20365,-0.47423 0,-0.0526 -0.0542,-0.0649 -0.28683,-0.0649 -0.26364,0 -0.31428,0.0188 -0.33195,0.12299 -0.002,0.0106 0.0847,0.10859 0.19215,0.21771 z m -2.50795,-14.96463 c 0.0516,0.0325 0.7377,0.43701 1.5246,0.89884 0.78689,0.46183 1.78995,1.05259 2.22901,1.3128 l 0.7983,0.47311 v 7.48325 7.48325 h -1.84542 -1.84542 v -0.46101 c 0,-0.45896 4.2e-4,-0.46088 0.0933,-0.43226 0.227,0.07 0.9234,0.0738 1.18593,0.007 1.24444,-0.31881 2.05536,-1.55271 1.83246,-2.78829 -0.1671,-0.9263 -0.90302,-1.71095 -1.82661,-1.94757 -0.2665,-0.0683 -0.97476,-0.066 -1.19178,0.004 -0.0922,0.0296 -0.0933,0.0253 -0.0933,-0.34935 0,-0.26837 0.0152,-0.38348 0.0518,-0.3934 0.0285,-0.008 0.16346,-0.0351 0.29987,-0.0607 0.72493,-0.13646 1.26234,-0.69518 1.39543,-1.45074 0.0769,-0.43658 -0.0779,-1.00236 -0.37183,-1.35894 -0.2863,-0.34734 -0.84923,-0.63792 -1.23581,-0.63792 h -0.14205 l 0.0117,-0.50789 0.0117,-0.5079 0.2455,-0.0306 c 0.35495,-0.0442 0.73495,-0.23687 0.99716,-0.50543 0.98824,-1.01222 0.43411,-2.69421 -0.96674,-2.93443 l -0.29666,-0.0509 v -0.23793 c 0,-0.14481 -0.0203,-0.25107 -0.0518,-0.27149 -0.0285,-0.0185 -0.23845,-0.0429 -0.46654,-0.0543 l -0.4147,-0.0207 -0.0109,-1.35948 -0.0109,-1.35947 z m 4.81224,2.55265 c 0.11611,-0.17229 0.43667,-0.33968 0.8801,-0.45958 0.28522,-0.0771 0.44812,-0.0902 1.16117,-0.0933 0.91168,-0.004 1.28579,0.0502 1.71897,0.24851 0.45794,0.20965 0.54115,0.36199 0.54115,0.99072 0,0.32236 0.0136,0.43648 0.0518,0.43566 0.0285,-4.9e-4 0.7878,-0.1179 1.6873,-0.26063 l 1.63547,-0.2595 0.0329,-0.12293 c 0.0181,-0.0676 0.0648,-0.14628 0.10384,-0.17482 0.0983,-0.0719 0.34975,-0.0649 0.46057,0.0127 l 0.0922,0.0646 v 2.04896 c 0,2.32 0.0298,2.13481 -0.34334,2.13481 -0.20102,0 -0.32017,-0.0887 -0.32017,-0.23842 0,-0.10565 0.13421,-0.077 -1.70028,-0.36289 -0.8097,-0.12619 -1.52351,-0.23994 -1.58623,-0.25279 l -0.11404,-0.0234 v 2.28416 2.28415 h -2.19792 -2.19791 v -4.05794 -4.05794 z m 3.70007,8.50485 c 3.77608,0 3.79451,-4.1e-4 3.79451,-0.0836 0,-0.046 0.0622,-0.15146 0.13832,-0.23448 0.1202,-0.13116 0.16771,-0.1531 0.36286,-0.16757 0.27282,-0.0202 0.44548,0.0713 0.54999,0.29152 0.0641,0.13519 0.0691,0.42414 0.0589,3.46697 l -0.0111,3.3195 -0.15035,0.15033 c -0.25786,0.25785 -0.63713,0.23582 -0.86201,-0.0501 -0.0477,-0.0606 -0.0866,-0.14491 -0.0866,-0.18745 0,-0.0749 -0.1191,-0.0774 -3.79451,-0.0774 h -3.79451 v -3.21393 -3.21393 z m -1.988,3.71643 c 0.047,0.0629 0.13702,0.15291 0.19999,0.19993 0.11222,0.0838 0.16356,0.0857 2.57895,0.0968 l 2.46446,0.0113 v -1.30859 c 0,-1.4222 -0.007,-1.47563 -0.23335,-1.6869 -0.0655,-0.0613 -0.17168,-0.13125 -0.23589,-0.15551 -0.0769,-0.029 -0.83484,-0.0441 -2.22023,-0.0441 -2.09897,0 -2.10388,2e-4 -2.28835,0.0933 -0.12101,0.0611 -0.21727,0.1506 -0.27869,0.25919 -0.0919,0.16248 -0.0936,0.18893 -0.0831,1.29299 0.0101,1.06468 0.0155,1.13345 0.0962,1.24154 z m 2.14351,1.59089 c 0.18236,0.35689 0.16735,0.35335 1.49597,0.35335 1.16713,0 1.16865,-1.1e-4 1.3081,-0.0996 0.20457,-0.14591 0.29382,-0.3762 0.29491,-0.76093 l 9.8e-4,-0.3214 h -1.5966 -1.59659 v 0.32297 c 0,0.25319 0.0202,0.36244 0.0933,0.50558 z"
       style="fill:#000000;stroke-width:0.489804"
       id="path1-2" /><path
       d="m 804.67209,494.5661 c -0.13737,0.61846 -0.39253,1.09353 -0.82572,1.53737 -0.66861,0.68503 -1.51093,1.01479 -2.44599,0.95755 -0.52216,-0.0319 -0.77189,-0.0995 -1.25894,-0.34065 -0.64387,-0.31874 -1.2613,-0.98782 -1.49978,-1.62522 -0.2312,-0.61793 -0.28066,-1.37418 -0.12855,-1.96539 0.29331,-1.14006 1.20549,-2.03086 2.35497,-2.2998 0.35866,-0.0839 1.11224,-0.0846 1.42377,-0.001 1.11932,0.29937 1.93103,1.04317 2.28076,2.08992 0.114,0.34118 0.13703,0.47692 0.14937,0.88029 0.01,0.32795 -0.006,0.56757 -0.0499,0.76719 z m -1.48519,-0.35249 h -0.55579 l -0.0414,0.11891 c -0.0396,0.11354 -0.0238,0.13651 0.34967,0.50801 0.42721,0.425 0.39269,0.41894 0.56311,0.0988 0.0889,-0.16693 0.23387,-0.57749 0.23802,-0.6739 10e-4,-0.039 -0.13539,-0.0518 -0.55356,-0.0518 z m 0.49952,-0.85014 c -0.061,-0.22885 -0.26311,-0.66382 -0.33685,-0.72502 -0.0322,-0.0267 -0.16727,0.0817 -0.4283,0.34377 l -0.38124,0.38283 0.0506,0.13399 0.0506,0.13399 h 0.55075 c 0.30292,0 0.55054,-0.014 0.55027,-0.0311 -2.7e-4,-0.0171 -0.0254,-0.12441 -0.0558,-0.23845 z m -1.67639,1.55817 -0.1335,0.0465 v 0.55579 c 0,0.30568 0.0167,0.55578 0.0371,0.55578 0.10659,0 0.59265,-0.18142 0.78783,-0.29406 l 0.22361,-0.12905 -0.39077,-0.39077 c -0.38766,-0.38766 -0.39183,-0.3904 -0.52427,-0.34423 z m 0.68009,-2.88453 c -0.19732,-0.11564 -0.61903,-0.27024 -0.73714,-0.27024 -0.0704,0 -0.0764,0.043 -0.0764,0.54111 v 0.54112 l 0.13478,0.0577 0.13478,0.0577 0.38146,-0.37814 c 0.20981,-0.20798 0.37213,-0.39324 0.36072,-0.4117 -0.0114,-0.0185 -0.10058,-0.0803 -0.19815,-0.13753 z m -0.60229,1.60463 c -0.0999,-0.1946 -0.27745,-0.29905 -0.50799,-0.29885 -0.3676,3.2e-4 -0.59937,0.26218 -0.5634,0.63656 0.0166,0.17299 0.0452,0.23133 0.16847,0.34433 0.17148,0.15715 0.30323,0.19997 0.50107,0.16286 0.38799,-0.0728 0.58528,-0.48762 0.40185,-0.8449 z m -0.92624,1.2858 -0.13435,-0.0507 -0.38992,0.38992 -0.38991,0.38991 0.22361,0.12905 c 0.19518,0.11263 0.68124,0.29406 0.78783,0.29406 0.0204,0 0.0371,-0.24784 0.0371,-0.55075 v -0.55076 z m -0.0419,-3.1448 c -0.0969,0.0145 -0.33264,0.10303 -0.52379,0.19661 l -0.34754,0.17013 0.3958,0.39579 c 0.39537,0.39537 0.39593,0.39574 0.52378,0.34278 l 0.128,-0.053 v -0.53938 -0.53938 z m -1.1527,2.43999 -0.5482,-0.0116 0.0267,0.16701 c 0.0312,0.19539 0.19188,0.57344 0.32029,0.75377 l 0.09,0.12634 0.38409,-0.3825 0.3841,-0.38249 -0.0544,-0.12945 -0.0544,-0.12946 z m -0.13005,-1.62646 c -0.0546,0 -0.36436,0.68125 -0.39129,0.86051 l -0.0265,0.17625 h 0.53689 0.53689 l 0.0658,-0.13478 0.0658,-0.13478 -0.37883,-0.3836 c -0.20836,-0.21098 -0.39229,-0.3836 -0.40874,-0.3836 z m 4.81575,12.87159 c -0.065,0.26067 -0.29259,0.64763 -0.5025,0.85425 -0.92572,0.91123 -2.52153,0.49566 -2.90159,-0.75563 -0.2511,-0.82668 0.14619,-1.74465 0.91515,-2.11449 0.34822,-0.16748 0.89578,-0.20909 1.25323,-0.0952 0.48779,0.15538 0.95125,0.57105 1.15868,1.03918 0.10374,0.23414 0.14449,0.80123 0.077,1.07192 z m -0.63963,-0.95094 c -0.11818,-0.24155 -0.3024,-0.42417 -0.5722,-0.56724 -0.26601,-0.14104 -0.76243,-0.13258 -1.0497,0.0179 -0.72824,0.38149 -0.88696,1.35817 -0.31385,1.93127 0.53662,0.53662 1.46306,0.44037 1.87033,-0.19432 0.23537,-0.36679 0.25881,-0.79233 0.0654,-1.18761 z m -0.85164,0.69843 c -0.0646,0.0822 -0.12558,0.11225 -0.22742,0.11225 -0.27785,0 -0.39394,-0.3272 -0.18025,-0.50801 0.26039,-0.22034 0.61869,0.12749 0.40767,0.39576 z m 1.44784,-4.39052 c -0.43156,1.2549 -2.03517,1.61973 -2.93546,0.66781 -0.43953,-0.46474 -0.60988,-1.12333 -0.44091,-1.70457 0.25241,-0.86827 1.13004,-1.42642 1.9929,-1.26744 1.07437,0.19796 1.73144,1.29234 1.38347,2.3042 z m -0.58011,-1.06511 c -0.11299,-0.22585 -0.34539,-0.46964 -0.55603,-0.58328 -0.13487,-0.0728 -0.23566,-0.0895 -0.53912,-0.0895 -0.42741,0 -0.59651,0.0666 -0.85845,0.33802 -0.73873,0.76548 -0.20146,2.04592 0.85845,2.04592 0.5473,0 1.04354,-0.39013 1.18689,-0.93308 0.0512,-0.19385 0.005,-0.58446 -0.0917,-0.77808 z m -0.82626,0.61985 c -0.11271,0.28273 -0.55226,0.19969 -0.55226,-0.10433 0,-0.17409 0.11743,-0.29729 0.28337,-0.29729 0.20444,0 0.34518,0.21023 0.26889,0.40162 z m 0.38824,9.78966 c -0.0117,0.0285 -0.0532,0.0518 -0.0922,0.0518 -0.039,0 -0.49001,-0.26629 -1.00219,-0.59175 -0.51218,-0.32547 -1.05585,-0.67014 -1.20815,-0.76594 l -0.27691,-0.17418 -0.0278,0.13351 c -0.12625,0.60593 -0.92335,1.0855 -2.11796,1.27427 -0.27241,0.0431 -0.29865,0.0563 -0.3525,0.17786 -0.20789,0.46947 -1.15184,0.4709 -1.35955,0.002 -0.0526,-0.11883 -0.0778,-0.13152 -0.31103,-0.15686 -0.85301,-0.0927 -1.62975,-0.39416 -2.00389,-0.77777 -0.28499,-0.29219 -0.30262,-0.3702 -0.30262,-1.33852 v -0.85147 h -0.66353 c -0.58295,0 -0.66352,0.008 -0.66352,0.0669 0,0.14805 -0.1829,0.39008 -0.35933,0.47549 -0.15798,0.0765 -0.23905,0.0847 -0.71522,0.0726 -0.61736,-0.0157 -0.70269,-0.0521 -0.86575,-0.3686 -0.0935,-0.18147 -0.0947,-0.20232 -0.0829,-1.41497 0.0113,-1.16843 0.0163,-1.23658 0.0974,-1.34522 0.19235,-0.25744 0.26872,-0.28428 0.85124,-0.29911 0.47617,-0.0122 0.55724,-0.004 0.71523,0.0726 0.17642,0.0854 0.35932,0.32744 0.35932,0.4755 0,0.0588 0.0806,0.0669 0.66353,0.0669 h 0.66352 v -0.93307 -0.93308 h -0.41573 c -0.39888,0 -0.41723,0.004 -0.45299,0.098 -0.0461,0.12141 -0.1194,0.1508 -0.37581,0.1508 -0.32573,0 -0.33133,-0.0147 -0.33133,-0.8674 0,-0.85334 0.008,-0.87434 0.34812,-0.87434 0.23556,0 0.35687,0.0569 0.35687,0.16734 0,0.0758 0.0302,0.0815 0.43544,0.0815 h 0.43543 v -0.74646 -0.74646 h -0.43544 c -0.40519,0 -0.43544,0.006 -0.43544,0.0815 0,0.10986 -0.12106,0.16734 -0.3525,0.16734 -0.36126,0 -0.35249,0.0216 -0.35249,-0.87087 0,-0.89254 -0.009,-0.87088 0.35249,-0.87088 0.23144,0 0.3525,0.0575 0.3525,0.16734 0,0.0758 0.0302,0.0815 0.43544,0.0815 h 0.43543 v -0.89161 -0.8916 h -1.32704 -1.32705 v 0.0944 c 0,0.12549 -0.10193,0.26502 -0.24927,0.34122 -0.1619,0.0837 -0.7092,0.0831 -0.87178,-9.8e-4 -0.2611,-0.13502 -0.24991,0.0484 -0.23777,-3.90015 l 0.011,-3.59133 0.13543,-0.12099 c 0.12967,-0.11585 0.15235,-0.121 0.5329,-0.121 0.39671,0 0.39772,2.6e-4 0.53845,0.141 0.0899,0.0899 0.141,0.18111 0.141,0.25161 0,0.0863 0.016,0.10567 0.0726,0.0882 3.274,-1.01245 2.83376,-0.94491 6.29309,-0.96532 l 2.73703,-0.0162 0.0622,0.13612 c 0.0998,0.21843 0.18741,0.23887 1.02639,0.23955 l 0.75683,4.9e-4 v 0.48134 c 0,0.44233 -0.006,0.47889 -0.0726,0.45102 -0.52001,-0.21731 -1.43231,-0.26826 -2.00631,-0.11207 -1.14581,0.3118 -2.06008,1.22482 -2.36478,2.36156 -0.12567,0.4688 -0.12562,1.20012 9e-5,1.64942 0.32389,1.15747 1.13347,1.98916 2.28713,2.34957 0.4426,0.13827 1.32116,0.13996 1.79405,0.003 0.17702,-0.0511 0.33097,-0.0929 0.34212,-0.0929 0.0112,0 0.0203,0.30707 0.0203,0.68237 v 0.68238 l -0.15551,0.0261 c -0.68918,0.1155 -1.25573,0.5633 -1.5033,1.18819 -0.0885,0.22352 -0.10368,0.32857 -0.10368,0.72007 0,0.44966 0.003,0.46465 0.16274,0.78793 0.27766,0.56231 0.75367,0.93067 1.36258,1.05444 l 0.23975,0.0487 -0.0117,0.48356 -0.0117,0.48356 -0.22808,0.032 c -0.32238,0.0452 -0.70017,0.24349 -0.9702,0.50923 -0.37714,0.37116 -0.56299,0.81733 -0.56375,1.35337 -10e-4,0.92076 0.61774,1.67692 1.5265,1.86461 l 0.25627,0.0529 v 0.44632 0.44631 l 0.3836,0.0119 0.3836,0.0119 0.007,1.11969 c 0.004,0.61583 -0.002,1.14302 -0.0138,1.17153 z m -7.27479,-15.83121 c -0.10904,-0.24137 -0.33759,-0.47647 -0.59814,-0.61527 l -0.20735,-0.11046 h -1.05749 -1.05749 l -0.23562,0.11571 c -0.26693,0.13108 -0.46173,0.332 -0.5894,0.60791 -0.0752,0.16242 -0.0873,0.26676 -0.0873,0.74857 0,0.48181 0.0122,0.58615 0.0873,0.74857 0.12766,0.2759 0.32244,0.4768 0.58939,0.6079 l 0.23563,0.11572 h 1.03675 c 0.99398,0 1.04531,-0.004 1.24411,-0.0954 0.27079,-0.12452 0.50432,-0.35174 0.6266,-0.60964 0.0885,-0.18654 0.0983,-0.26351 0.0978,-0.76719 -4.3e-4,-0.47329 -0.0136,-0.5887 -0.0848,-0.74646 z m 0.0217,-2.64505 c -0.0854,-0.20446 -0.25071,-0.37542 -0.45398,-0.46953 -0.1501,-0.0695 -0.28817,-0.0768 -1.45145,-0.0773 l -1.28558,-4.9e-4 -0.21582,0.12378 c -0.63578,0.36463 -0.60783,1.27759 0.05,1.63159 0.15649,0.0842 0.23164,0.09 1.32704,0.10299 0.75629,0.009 1.2352,-0.002 1.37348,-0.0329 0.24617,-0.054 0.51519,-0.26221 0.63718,-0.49312 0.0994,-0.18806 0.10871,-0.57069 0.0192,-0.78501 z"
       style="fill:#000000;stroke-width:0.489804"
       id="path1-8" /><path
       d="m 513.61231,202.30519 c 0.51124,0.0726 1.05174,0.50222 1.23303,0.98016 0.31494,0.83035 -0.0491,1.72164 -0.85504,2.09331 -0.17107,0.0789 -0.27443,0.0941 -0.63948,0.0941 -0.39149,0 -0.45897,-0.0116 -0.66855,-0.11448 -0.3639,-0.17871 -0.5936,-0.40712 -0.77162,-0.76732 -0.14723,-0.29791 -0.15627,-0.33861 -0.15363,-0.69191 0.002,-0.28637 0.025,-0.43189 0.0962,-0.6137 0.17895,-0.45642 0.72099,-0.90421 1.16834,-0.96518 0.10125,-0.0138 0.2214,-0.0305 0.26702,-0.0371 0.0456,-0.007 0.19128,0.003 0.3237,0.0221 z m -0.70446,0.69401 c -0.20748,0.10669 -0.36182,0.27353 -0.46602,0.50373 -0.25054,0.55348 0.0993,1.23546 0.69985,1.36426 0.9133,0.19587 1.57678,-0.90035 0.97233,-1.60651 -0.31289,-0.36555 -0.79892,-0.47091 -1.20616,-0.26148 z m 0.6687,0.72031 c 0.20285,0.28961 -0.166,0.60393 -0.42527,0.36239 -0.1894,-0.17646 -0.0673,-0.45456 0.19954,-0.45456 0.11954,0 0.17785,0.0238 0.22573,0.0922 z m -4.53034,-1.41487 c 0.29111,0.0414 0.60478,0.19626 0.84375,0.41654 0.83195,0.76686 0.60318,2.14955 -0.43734,2.64334 -0.20086,0.0953 -0.28006,0.10824 -0.66352,0.10824 -0.38381,0 -0.46307,-0.013 -0.66849,-0.10928 -1.0421,-0.48863 -1.27091,-1.86937 -0.43714,-2.6379 0.22839,-0.21052 0.54219,-0.37373 0.78081,-0.40612 0.0988,-0.0134 0.217,-0.0298 0.26262,-0.0364 0.0456,-0.007 0.18931,0.003 0.31931,0.0216 z m -0.70353,0.69568 c -0.20795,0.10609 -0.45313,0.38776 -0.50732,0.58284 -0.13961,0.50253 0.10328,1.03616 0.55978,1.22986 0.20489,0.0869 0.57367,0.091 0.7672,0.008 0.62598,-0.26697 0.81943,-1.05908 0.38314,-1.56879 -0.30918,-0.3612 -0.79123,-0.46236 -1.2028,-0.25239 z m 0.67216,0.71919 c 0.13993,0.19978 0.0151,0.44694 -0.22574,0.44694 -0.24084,0 -0.36567,-0.24716 -0.22573,-0.44694 0.0479,-0.0684 0.10619,-0.0922 0.22573,-0.0922 0.11955,0 0.17785,0.0238 0.22574,0.0922 z m -4.53034,-1.4132 c 0.13001,0.0176 0.33129,0.08 0.4473,0.13883 1.2181,0.61727 1.19729,2.30755 -0.0359,2.91314 -0.20957,0.10292 -0.27706,0.11448 -0.66855,0.11448 -0.36505,0 -0.46841,-0.0152 -0.63948,-0.0941 -1.00004,-0.46119 -1.29437,-1.74737 -0.58065,-2.53737 0.3929,-0.43489 0.88888,-0.61451 1.47725,-0.53498 z m -0.70155,0.69299 c -0.19123,0.0976 -0.4121,0.33478 -0.49382,0.53038 -0.0746,0.17859 -0.0728,0.54746 0.003,0.73038 0.40676,0.9735 1.82285,0.75785 1.91805,-0.29209 0.0689,-0.75999 -0.74912,-1.31494 -1.42787,-0.96867 z m 0.67571,0.73076 c 0.0973,0.14855 0.0371,0.35801 -0.11863,0.41279 -0.26344,0.0927 -0.48971,-0.14926 -0.35877,-0.38356 0.0494,-0.0884 0.0976,-0.11381 0.23464,-0.12385 0.147,-0.0108 0.18288,0.003 0.24276,0.0946 z m -5.19282,-1.42306 c 0.5238,0.0652 1.07705,0.36188 1.43683,0.77061 0.31593,0.35892 0.57746,1.04278 0.57962,1.51566 4e-4,0.0865 -0.0287,0.29977 -0.0647,0.47394 -0.19,0.91986 -0.89517,1.62158 -1.82444,1.81554 -1.17576,0.2454 -2.38327,-0.49983 -2.69326,-1.66219 -0.0772,-0.28957 -0.0879,-0.86519 -0.0215,-1.15778 0.0848,-0.37352 0.33046,-0.80737 0.62279,-1.0997 0.51635,-0.51634 1.2143,-0.74942 1.96469,-0.65608 z m -0.13927,1.0417 v 0.46781 l 0.13432,0.0507 c 0.13376,0.0505 0.13569,0.0493 0.45698,-0.27195 l 0.32265,-0.32265 -0.21852,-0.13211 c -0.17994,-0.10879 -0.31537,-0.15957 -0.68506,-0.25689 -0.006,-0.001 -0.0104,0.20779 -0.0104,0.46509 z m -0.93009,-0.28082 c -0.37286,0.17638 -0.37328,0.1885 -0.0189,0.5429 l 0.30978,0.30978 0.15371,-0.0642 0.15371,-0.0642 v -0.44052 -0.44051 l -0.18787,0.0258 c -0.10333,0.0142 -0.28803,0.0731 -0.41045,0.13105 z m 1.7531,0.79791 -0.31546,0.3214 0.0574,0.13478 0.0574,0.13477 h 0.45605 c 0.25083,0 0.45583,-0.014 0.45556,-0.0311 -0.003,-0.18406 -0.29558,-0.88124 -0.36994,-0.88124 -0.014,0 -0.16744,0.14463 -0.34095,0.32139 z m -2.49097,-0.11072 c -0.11154,0.1812 -0.24695,0.61037 -0.21158,0.67057 0.01,0.0171 0.21287,0.0311 0.45071,0.0311 h 0.43243 l 0.064,-0.15325 0.064,-0.15326 -0.30115,-0.30317 c -0.16563,-0.16675 -0.32017,-0.2969 -0.3434,-0.28923 -0.0232,0.008 -0.093,0.0964 -0.15508,0.19724 z m 1.16436,0.52077 c -0.39181,0.37537 0.0623,0.9904 0.54642,0.74005 0.0669,-0.0346 0.14996,-0.11765 0.18456,-0.18456 0.24589,-0.4755 -0.34544,-0.92487 -0.73098,-0.55549 z m 1.05182,0.64655 c -0.0502,0.13312 -0.0487,0.13573 0.27074,0.45706 0.29534,0.29708 0.32586,0.31724 0.37792,0.24971 0.0904,-0.11724 0.28512,-0.55866 0.31139,-0.70588 l 0.024,-0.13477 h -0.46678 -0.46678 z m -2.40754,0.0419 c 0.0489,0.21775 0.17239,0.50114 0.27539,0.63207 l 0.0778,0.0989 0.31761,-0.31948 c 0.31565,-0.31751 0.31729,-0.32031 0.26707,-0.45337 l -0.0505,-0.13388 h -0.4634 -0.46341 z m 1.93189,0.39363 c -0.0636,0.0183 -0.0726,0.0789 -0.0726,0.4919 v 0.47103 l 0.13478,-0.0253 c 0.17617,-0.0331 0.38204,-0.11764 0.60615,-0.24892 l 0.18108,-0.10608 -0.32585,-0.32778 c -0.22006,-0.22136 -0.34618,-0.31933 -0.38844,-0.30174 -0.0344,0.0143 -0.0952,0.0354 -0.13515,0.0469 z m -0.99774,0.24877 c -0.34686,0.35482 -0.34808,0.36693 -0.0522,0.51824 0.14662,0.075 0.52337,0.19606 0.61446,0.19751 0.0171,2.7e-4 0.0311,-0.20474 0.0311,-0.45557 v -0.45605 l -0.13478,-0.0589 c -0.0741,-0.0324 -0.13714,-0.0605 -0.14003,-0.0623 -0.003,-0.002 -0.14626,0.14085 -0.3186,0.31713 z m 20.29171,-2.6642 c 0,0.0339 -0.10334,0.19532 -0.22963,0.35878 -0.45559,0.58965 -1.14418,1.76764 -1.97013,3.37034 -0.30949,0.60055 -0.45467,0.92352 -0.42975,0.95605 0.34544,0.45092 0.50229,0.86828 0.61851,1.64579 0.0172,0.11552 0.0461,0.15719 0.12199,0.17624 0.16897,0.0424 0.35461,0.26172 0.35461,0.41893 0,0.15613 -0.18531,0.37644 -0.35178,0.41823 -0.099,0.0248 -0.14429,0.12186 -0.14529,0.31123 -9.8e-4,0.20193 -0.16624,0.76316 -0.31222,1.06087 -0.26943,0.54945 -0.6074,0.76008 -1.2196,0.76008 -0.23726,0 -0.24206,0.002 -0.26744,0.12921 -0.0249,0.12472 -0.25235,0.38292 -0.41892,0.47563 -0.079,0.044 -0.0757,0.0776 0.14424,1.48256 0.20094,1.28351 0.23319,1.43756 0.30096,1.43756 0.0417,0 0.12171,0.0458 0.1777,0.10179 0.0867,0.0867 0.10179,0.14084 0.10179,0.36493 0,0.14474 -0.0216,0.28479 -0.048,0.31123 -0.0265,0.0265 -0.17464,0.0807 -0.32932,0.12052 -0.26082,0.0672 -0.28652,0.0841 -0.35378,0.23329 -0.0924,0.20483 -0.34464,0.42135 -0.58725,0.50402 -0.34528,0.11765 -0.88168,0.16332 -1.29524,0.11028 -0.62313,-0.0799 -0.97423,-0.26951 -1.12335,-0.60661 -0.0665,-0.15032 -0.101,-0.1806 -0.23364,-0.20502 -0.0856,-0.0158 -0.23493,-0.0634 -0.33187,-0.10598 l -0.17625,-0.0773 V 216.462 c 0,-0.31629 0.11464,-0.51328 0.30066,-0.51666 0.0399,-9.8e-4 0.0726,-0.0191 0.0726,-0.0408 0,-0.0534 0.4088,-2.6535 0.43476,-2.76521 0.0159,-0.0685 -0.007,-0.10007 -0.10361,-0.13989 -0.16142,-0.0669 -0.36952,-0.30567 -0.40025,-0.45931 l -0.0242,-0.12102 h -0.84495 -0.84495 v 0.5391 c 0,0.29651 0.0146,0.53911 0.0325,0.53911 0.0614,0 0.17482,0.24092 0.17482,0.37132 0,0.18978 -0.10048,0.35433 -0.26363,0.43175 -0.18499,0.0878 -0.83905,0.0933 -1.04126,0.009 -0.24843,-0.1038 -0.3465,-0.44319 -0.19983,-0.69149 0.0391,-0.0662 0.0858,-0.12044 0.10368,-0.12044 0.0179,0 0.0325,-0.2426 0.0325,-0.53911 v -0.53911 h -0.74646 -0.74646 v 0.53908 c 0,0.2965 0.0146,0.5391 0.0325,0.5391 0.0614,0 0.17482,0.24093 0.17482,0.37132 0,0.18978 -0.10048,0.35434 -0.26363,0.43176 -0.18498,0.0878 -0.83904,0.0933 -1.04126,0.009 -0.1594,-0.0666 -0.27098,-0.24724 -0.27098,-0.4387 0,-0.14182 0.10352,-0.37323 0.16695,-0.37323 0.0242,0 0.0404,-0.21683 0.0404,-0.53912 v -0.53911 h -1.09896 -1.09895 v 1.81667 1.81671 l 0.16378,0.0723 c 0.21018,0.0927 0.33386,0.29033 0.33386,0.53341 0,0.21086 -0.12579,0.43453 -0.29154,0.5184 -0.0795,0.0402 -0.87412,0.0519 -3.54445,0.0523 -3.34127,4.4e-4 -3.4459,-0.002 -3.57478,-0.0805 -0.17143,-0.10453 -0.2612,-0.28206 -0.2612,-0.51656 0,-0.14983 0.0254,-0.21618 0.12725,-0.33216 0.07,-0.0797 0.19129,-0.16809 0.26956,-0.19639 l 0.1423,-0.0515 v -4.18015 -4.18015 h -0.12145 c -0.22879,0 -0.30191,-0.15777 -0.38148,-0.82312 -0.054,-0.45193 -0.0235,-2.24114 0.0435,-2.54978 0.0794,-0.36591 0.12314,-0.41996 0.35121,-0.43447 0.19427,-0.0123 0.201,-0.009 0.17274,0.0829 -0.0699,0.22761 -0.0729,0.92492 -0.005,1.21282 0.26812,1.1415 1.27676,1.94092 2.45139,1.94291 0.43512,4.9e-4 0.70857,-0.0649 1.13571,-0.27263 0.9363,-0.45533 1.50201,-1.50285 1.37142,-2.5394 -0.0202,-0.16016 -0.0491,-0.32346 -0.0642,-0.36286 -0.0251,-0.0655 0.0166,-0.0716 0.4869,-0.0716 h 0.51439 l 0.0463,0.27019 c 0.1668,0.97377 0.97887,1.61566 1.951,1.54214 0.74992,-0.0567 1.49155,-0.71164 1.60615,-1.41837 0.0148,-0.0912 0.0365,-0.2172 0.0482,-0.27992 l 0.0212,-0.11404 h 0.44675 0.44674 l 0.0452,0.27278 c 0.10275,0.6202 0.47133,1.10853 1.04255,1.38133 0.2991,0.14285 0.33416,0.14984 0.75133,0.14984 0.42186,0 0.44886,-0.006 0.75139,-0.1551 0.60842,-0.30069 0.95986,-0.78681 1.04964,-1.45187 l 0.0266,-0.19698 h 0.44937 0.44937 l 0.0471,0.27992 c 0.10299,0.61194 0.4762,1.1064 1.03736,1.3744 0.2983,0.14246 0.33414,0.14963 0.74873,0.14963 0.4147,0 0.45038,-0.007 0.74918,-0.14984 0.57023,-0.27232 0.92557,-0.74077 1.03765,-1.36794 l 0.0511,-0.28617 h 0.23389 c 0.12864,0 0.25627,-0.0224 0.28364,-0.0498 0.0315,-0.0315 0.0498,-0.19001 0.0498,-0.43204 0,-0.21026 0.0113,-0.4118 0.0252,-0.44788 0.0222,-0.058 0.18182,-0.0656 1.36852,-0.0656 1.16036,0 1.34334,0.008 1.34334,0.0616 z m -19.24338,8.40869 c -0.10158,0.0513 -0.22684,0.15671 -0.27834,0.23421 l -0.0936,0.14091 v 2.10883 2.10884 h 1.38046 c 1.34984,0 1.38451,-0.002 1.56307,-0.0933 0.10043,-0.0513 0.22102,-0.146 0.26797,-0.21039 0.0833,-0.1142 0.0854,-0.16443 0.0854,-2.03937 0,-1.87493 -0.002,-1.92516 -0.0854,-2.03936 -0.047,-0.0644 -0.16754,-0.15907 -0.26797,-0.21039 -0.17583,-0.0899 -0.22354,-0.0933 -1.28473,-0.0933 -1.06056,0 -1.10908,0.003 -1.28682,0.0933 z m -1.5934,1.44558 c -0.20964,0.0582 -0.41615,0.26472 -0.47435,0.47435 -0.0686,0.24722 -0.0574,1.98781 0.0141,2.18835 0.12349,0.34628 0.37186,0.48226 0.88336,0.48362 l 0.34213,9.8e-4 v -1.5966 -1.5966 l -0.30066,2.3e-4 c -0.16536,1.3e-4 -0.37443,0.0207 -0.46459,0.0457 z"
       style="fill:#000000;stroke-width:0.489804"
       id="path1-7" /><text
       xml:space="preserve"
       style="font-weight:600;font-stretch:semi-condensed;font-size:17.6389px;font-family:'Noto Sans';-inkscape-font-specification:'Noto Sans Semi-Bold Semi-Condensed';text-align:center;letter-spacing:0.529167px;writing-mode:lr-tb;direction:ltr;text-anchor:middle;fill:#0000ff;fill-opacity:1;stroke:#000000;stroke-width:0.7;stroke-linecap:round;stroke-linejoin:round;stroke-opacity:1"
       x="398.95514"
       y="797.0705"
       id="text42"><tspan
         sodipodi:role="line"
         id="tspan42"
         style="font-style:normal;font-variant:normal;font-weight:900;font-stretch:normal;font-size:17.6389px;font-family:'Noto Sans';-inkscape-font-specification:'Noto Sans Heavy';fill:#0000ff;fill-opacity:1;stroke:#000000;stroke-width:0.7;stroke-opacity:1"
         x="399.21973"
         y="797.0705">?</tspan></text><text
       xml:space="preserve"
       style="font-weight:600;font-stretch:semi-condensed;font-size:17.6389px;font-family:'Noto Sans';-inkscape-font-specification:'Noto Sans Semi-Bold Semi-Condensed';text-align:center;letter-spacing:0.529167px;writing-mode:lr-tb;direction:ltr;text-anchor:middle;fill:#0000ff;fill-opacity:1;stroke:#000000;stroke-width:0.7;stroke-linecap:round;stroke-linejoin:round;stroke-opacity:1"
       x="-343.73862"
       y="-202.83556"
       id="text42-0"
       transform="scale(-1)"><tspan
         sodipodi:role="line"
         id="tspan42-9"
         style="font-style:normal;font-variant:normal;font-weight:900;font-stretch:normal;font-size:17.6389px;font-family:'Noto Sans';-inkscape-font-specification:'Noto Sans Heavy';fill:#0000ff;fill-opacity:1;stroke:#000000;stroke-width:0.7;stroke-opacity:1"
         x="-343.47403"
         y="-202.83556">?</tspan></text></g></svg>
