<?xml version="1.0" encoding="UTF-8" standalone="no"?>
<!-- Created with Inkscape (http://www.inkscape.org/) -->

<svg
   width="53.98mm"
   height="85.599998mm"
   viewBox="0 0 53.98 85.599998"
   version="1.1"
   id="svg1"
   inkscape:version="1.4.3 (0d15f75042, 2025-12-25)"
   sodipodi:docname="cell_single.svg"
   xmlns:inkscape="http://www.inkscape.org/namespaces/inkscape"
   xmlns:sodipodi="http://sodipodi.sourceforge.net/DTD/sodipodi-0.dtd"
   xmlns="http://www.w3.org/2000/svg"
   xmlns:svg="http://www.w3.org/2000/svg">
  <sodipodi:namedview
     id="namedview1"
     pagecolor="#ffffff"
     bordercolor="#000000"
     borderopacity="0.25"
     inkscape:showpageshadow="2"
     inkscape:pageopacity="0.0"
     inkscape:pagecheckerboard="0"
     inkscape:deskcolor="#d1d1d1"
     inkscape:document-units="mm"
     inkscape:zoom="2.4333134"
     inkscape:cx="66.370408"
     inkscape:cy="176.09734"
     inkscape:window-width="1910"
     inkscape:window-height="1052"
     inkscape:window-x="0"
     inkscape:window-y="0"
     inkscape:window-maximized="1"
     inkscape:current-layer="layer1" />
  <defs
     id="defs1" />
  <g
     inkscape:label="Layer 1"
     inkscape:groupmode="layer"
     id="layer1">
    <rect
       style="fill:#000000;fill-opacity:0.25;stroke-width:0.7;stroke-linecap:round;stroke-linejoin:round"
       id="background"
       width="53.979996"
       height="85.599998"
       x="2.7020772e-06"
       y="0"
       ry="3" />
    <path
       id="cell_color"
       style="fill-opacity:0.53849;stroke-width:0.7;stroke-linecap:round;stroke-linejoin:round"
       d="M 3.0000038,-1.9073486e-6 H 50.979996 c 1.662,0 3,1.3380000073486 3,3.0000000073486 V 16.211019 H 3.8146973e-6 V 2.9999981 C 3.8146973e-6,1.3379981 1.3380038,-1.9073486e-6 3.0000038,-1.9073486e-6 Z"
       sodipodi:nodetypes="sssccss" />
    <path
       id="cell_color-3"
       style="fill-opacity:0.53849;stroke-width:0.7;stroke-linecap:round;stroke-linejoin:round"
       d="M 2.9999999,85.599998 H 50.979992 c 1.662,0 3,-1.338 3,-3 V 81.505235 H 0 v 1.094763 c 0,1.662 1.3379999,3 2.9999999,3 z"
       sodipodi:nodetypes="sssccss" />
    <text
       xml:space="preserve"
       style="font-weight:600;font-stretch:semi-condensed;font-size:7.05556px;font-family:'Noto Sans';-inkscape-font-specification:'Noto Sans Semi-Bold Semi-Condensed';text-align:center;letter-spacing:0.529167px;writing-mode:lr-tb;direction:ltr;text-anchor:middle;white-space:pre;inline-size:44.8053;display:inline;fill:#000000;fill-opacity:0.53849;stroke:none;stroke-width:0.7;stroke-linecap:round;stroke-linejoin:round;stroke-opacity:1"
       x="144.15036"
       y="-76.598648"
       id="cell_name"
       transform="translate(-117.58725,100.16499)"><tspan
         x="144.15036"
         y="-76.598648"
         id="tspan1">cell_name<tspan
   y="-76.598648"
   id="tspan3"> </tspan></tspan><tspan
         x="144.15036"
         y="-67.779196"
         id="tspan7">on two lines</tspan></text>
    <text
       xml:space="preserve"
       style="font-weight:600;font-stretch:semi-condensed;font-size:5.64444px;font-family:'Noto Sans';-inkscape-font-specification:'Noto Sans Semi-Bold Semi-Condensed';text-align:center;letter-spacing:0.529167px;writing-mode:lr-tb;direction:ltr;text-anchor:middle;white-space:pre;inline-size:62.2442;display:inline;fill:#000000;fill-opacity:0.53849;stroke:none;stroke-width:0.7;stroke-linecap:round;stroke-linejoin:round;stroke-opacity:1"
       x="144.15036"
       y="-76.598648"
       id="cost"
       transform="translate(-117.16744,121.01873)"><tspan
         x="144.15036"
         y="-76.598648"
         id="tspan8">cost$</tspan></text>
    <path
       d="m 8.8100045,76.576359 c 0,-0.11434 0.2193466,-0.29128 0.4874416,-0.39321 0.6973342,-0.26512 0.8186969,-0.54329 0.9325689,-2.1375 l 0.101427,-1.42001 1.927147,-0.20286 1.927155,-0.20286 0.443095,-0.25357 0.443088,-0.25358 2.092633,0.003 c 1.150949,0.001 2.293065,0.0565 2.538051,0.12222 l 0.445426,0.11943 0.06172,0.73994 0.06172,0.73994 h 0.3948 0.3948 l 0.213773,-1.02954 0.213773,-1.02954 0.509729,-0.64077 0.509737,-0.64077 0.560271,0.70217 0.560278,0.70216 0.147139,1.47529 0.147139,1.4753 h 0.405718 0.40571 l 0.150397,-1.50839 0.15039,-1.50838 0.235494,-0.14554 0.235486,-0.14554 -0.105898,-2.80885 c -0.05827,-1.54494 -0.03872,-2.325 0.04347,-4.32052 l 0.149363,-3.628218 0.33137,-0.18544 0.331371,-0.18545 v -0.80809 -0.80809 l 0.540359,-1.05827 0.540359,-1.05826 0.09453,-1.57643 0.09453,-1.576441 0.176541,-0.10911 c 0.0971,-0.06003 0.183757,-0.446046 0.192566,-0.857852 0.02592,-1.212017 0.1611,-0.500537 0.361487,1.902628 l 0.187253,2.245655 0.550073,1.08552 0.550074,1.08552 0.04063,0.79087 0.04064,0.79086 0.277662,0.1716 0.277671,0.17161 0.09316,4.372508 0.09316,6.48919 0.176074,0.27293 0.176074,0.27291 0.172248,-0.26673 0.172249,-0.26673 0.892752,0.0639 0.892761,0.0639 0.05804,1.97786 0.05804,1.97788 h 0.169412 0.169411 l 0.144624,-2.23144 0.144624,-2.23144 h 0.358857 0.358848 l 0.131195,-1.55204 c 0.07216,-0.85362 0.131196,-1.90343 0.131196,-2.33288 v -0.78086 h 1.298564 1.298563 l 0.13108,2.38359 c 0.07209,1.31097 0.174124,2.58897 0.226734,2.84 l 0.09565,0.45644 h 0.40185 0.401852 v 1.82573 1.82572 h 0.304286 0.304287 v -2.02859 -2.02858 l 0.392152,-0.39215 c 0.215683,-0.21569 0.603648,-0.52035 0.862145,-0.67704 l 0.469994,-0.28488 1.065002,0.088 1.065004,0.088 v 2.60346 2.60348 l 0.45643,0.0649 0.45643,0.0649 0.06419,0.55785 0.06419,0.55787 H 26.370618 8.8099355 Z"
       style="fill:#000000;stroke-width:0.766706"
       id="hotel"
       sodipodi:nodetypes="cssccccccccccccccccccccccccccccccccccccccsscccccccccccccccccccccccsscccsscccccccccsscccccccccccc" />
    <path
       d="m 21.086021,74.844924 -0.01205,-1.759285 -0.06091,0.01263 -0.06091,0.01263 0.03497,-0.05863 c 0.03846,-0.06449 1.39809,-1.768035 1.689527,-2.116889 l 0.182515,-0.21847 h 0.462831 0.462833 l 0.279332,-0.297784 0.279332,-0.29778 0.28481,0.300329 0.284809,0.300333 0.219176,-0.01406 0.219177,-0.01406 0.01369,-0.287468 0.01369,-0.287463 h 0.271577 0.271578 l 0.01369,0.287463 0.0137,0.287468 0.172046,0.01424 0.172048,0.01424 0.810635,1.135612 c 0.44585,0.624586 0.820813,1.161486 0.833254,1.193104 l 0.02262,0.0575 h -0.05091 -0.05092 v 1.747789 1.747789 H 26.363338 24.868517 V 75.886656 75.16914 l -0.15638,-0.156378 -0.156381,-0.156383 H 24.37338 24.191007 l -0.126763,0.09971 -0.126763,0.09971 -0.06342,0.151783 -0.06342,0.151777 v 0.622406 0.6224 h -1.35629 -1.35629 z m 0.734176,1.051399 c 0.01868,-0.01867 0.03485,-0.116394 0.03592,-0.217129 l 0.0019,-0.18316 -0.160589,0.01364 -0.160589,0.01364 0.0057,0.206974 c 0.0031,0.113835 0.0076,0.20766 0.01001,0.208495 0.04121,0.01452 0.242526,-0.01743 0.267584,-0.0425 z m 0.426639,-0.166003 v -0.229971 h -0.160981 -0.16098 v 0.203599 0.203604 l 0.08049,0.02102 c 0.04427,0.01157 0.116711,0.02342 0.160981,0.02637 l 0.08049,0.0053 z m 0.551933,-0.0018 v -0.228123 h -0.160983 -0.16098 v 0.199308 c 0,0.235936 -6.46e-4,0.23495 0.180373,0.247285 l 0.141588,0.0096 z m 0.404972,-0.0096 0.01402,-0.218475 h -0.163503 -0.1635 v 0.232885 0.232889 l 0.149482,-0.01443 0.149481,-0.01443 z m 2.634426,0.195477 h 0.08823 v -0.206978 -0.206974 h -0.160983 -0.160981 v 0.234894 0.23489 l 0.07275,-0.02793 c 0.04001,-0.01535 0.112455,-0.02793 0.160981,-0.02793 z m 0.467681,0.0032 c 0.01897,-0.0018 0.03449,-0.09631 0.03449,-0.210145 V 75.500478 H 26.15636 25.972382 v 0.199308 c 0,0.236632 0.01629,0.258519 0.176571,0.237231 0.06732,-0.0089 0.137917,-0.01766 0.156889,-0.01941 z m 0.562892,-0.188591 -5.07e-4,-0.20553 -0.148941,-0.01443 -0.148942,-0.01443 v 0.227505 0.227505 l 0.149482,-0.0076 0.149482,-0.0076 z m 0.391494,-0.0081 v -0.226283 l -0.149482,0.01443 -0.149482,0.01443 -0.01474,0.153862 c -0.0081,0.08462 -0.0055,0.177762 0.0058,0.206973 l 0.02052,0.05312 0.143701,0.0049 0.143703,0.0049 z m -5.409578,-0.438931 c -0.0029,-0.08221 -0.008,-0.181837 -0.0115,-0.221388 l -0.0063,-0.07191 -0.149482,0.01443 -0.149481,0.01443 -0.0057,0.183976 c -0.0031,0.101187 0.004,0.200668 0.01582,0.221066 l 0.02151,0.03711 0.145166,-0.01411 0.145165,-0.01411 z m 0.39618,-0.05749 v -0.229971 h -0.160981 -0.16098 v 0.229971 0.229971 h 0.16098 0.160981 z m 0.551933,-0.0028 v -0.232884 l -0.149481,0.01443 -0.149482,0.01443 -0.01474,0.153861 c -0.0081,0.08463 -0.0036,0.182935 0.01005,0.218475 l 0.02479,0.06461 h 0.139428 0.139426 z m 0.413951,0.0028 v -0.229971 h -0.160983 -0.160981 v 0.229971 0.229971 h 0.160981 0.16098 z m 2.690676,0 v -0.206974 l -0.14948,-0.01443 -0.149483,-0.01443 v 0.235802 0.235803 l 0.149483,-0.01443 0.14948,-0.01443 z m 0.413951,0 v -0.206974 h -0.160981 -0.16098 l -0.01474,0.153857 c -0.0081,0.08462 -0.0031,0.184262 0.01119,0.221416 l 0.02592,0.06755 0.149798,-0.01443 0.149799,-0.01443 z m 0.543619,0 v -0.206974 l -0.145325,-0.01443 -0.145324,-0.01443 v 0.235802 0.235803 l 0.145324,-0.01443 0.145325,-0.01443 z m 0.399268,-0.0028 v -0.232884 l -0.149482,0.01443 -0.149482,0.01443 -0.01474,0.153861 c -0.0081,0.08463 -0.0036,0.182935 0.01005,0.218475 l 0.02479,0.06461 h 0.139426 0.139428 z m -4.599448,-1.537902 v -0.48294 h -0.275967 -0.275966 v 0.452282 c 0,0.248751 0.0138,0.466073 0.03066,0.48294 0.01687,0.01687 0.14105,0.03065 0.275968,0.03065 h 0.245304 z m 1.185967,-0.01148 0.01311,-0.471443 h -0.277576 -0.277576 v 0.452276 c 0,0.248756 0.01473,0.46701 0.03273,0.48501 0.018,0.01802 0.137012,0.02664 0.264469,0.01918 l 0.231739,-0.01355 z m 0.83779,0.01148 v -0.48294 H 24.38558 24.086615 v 0.48294 0.482945 h 0.298965 0.298963 z m 0.735912,0 v -0.48294 h -0.25297 -0.252969 v 0.48294 0.482945 h 0.252969 0.25297 z m 1.287846,0 v -0.48294 l -0.264469,-9.6e-5 -0.264468,-9.7e-5 0.01445,0.483037 0.01446,0.483041 h 0.250011 0.250011 z m -3.104629,-1.724791 v -0.160978 l -0.103487,-0.0147 -0.103488,-0.01471 -0.0057,0.04919 c -0.03476,0.297406 -0.02108,0.335482 0.113577,0.316292 l 0.09915,-0.01415 z m 0.290243,0.01148 -0.01428,-0.172479 -0.103488,-0.0147 -0.103487,-0.01471 v 0.187175 0.18718 h 0.117762 0.117763 z m 0.721637,-0.01148 V 71.798014 H 24.37408 24.13261 v 0.03448 0.16923 0.134735 l 0.24147,-0.0083 0.241472,-0.0083 z m -0.291702,0 v -0.114988 l 0.0232,0.0575 c 0.01276,0.03162 0.01276,0.08337 0,0.114984 l -0.0232,0.0575 z m 1.004616,-0.0028 v -0.174678 l -0.241471,0.0083 -0.24147,0.0083 -0.01405,0.168723 -0.01405,0.168728 0.255522,-0.0023 0.255523,-0.0023 z m -0.268704,0.0028 v -0.114988 l 0.0232,0.0575 c 0.01276,0.03162 0.01276,0.08337 0,0.114984 l -0.0232,0.0575 z m -1.313881,-0.758906 c 0.323468,-0.341512 0.600373,-0.620926 0.615344,-0.620926 0.01497,0 0.284649,0.279414 0.599285,0.620926 0.314636,0.341506 0.598583,0.620921 0.630992,0.620921 0.123562,0 0.149347,0.03102 -0.856746,-1.030711 l -0.386734,-0.408125 -0.232656,0.247976 c -0.12796,0.136386 -0.414448,0.441172 -0.636641,0.677302 -0.38262,0.406618 -0.458102,0.513558 -0.362478,0.513558 0.02283,0 0.306166,-0.279415 0.629634,-0.620921 z m 1.168635,0.222628 c 0,-0.05269 -0.526622,-0.590585 -0.578211,-0.590585 -0.05008,0 -0.571651,0.540667 -0.571651,0.592576 0,0.01558 0.258718,0.02835 0.574931,0.02835 0.316212,0 0.574931,-0.01364 0.574931,-0.03033 z"
       style="fill:#000000;stroke-width:0.130378"
       id="house1" />
    <path
       d="M 30.562928,74.695393 V 72.78662 h 2.690677 2.690677 v 1.908773 1.908772 h -2.690677 -2.690677 z m 4.231485,0.57493 V 74.258448 H 34.31148 33.828534 v 1.011875 1.01188 h 0.482946 0.482933 z m -2.630886,-0.586427 -0.01379,-0.26447 h -0.229974 -0.229974 l -0.0144,0.200737 c -0.008,0.11041 -0.0034,0.229418 0.01004,0.26447 l 0.02446,0.06373 h 0.233703 0.233715 z m 0.561134,-0.01152 v -0.275967 h -0.229974 -0.229961 v 0.275967 0.275966 h 0.229961 0.229974 z m -0.55193,-0.718033 v -0.252659 l -0.241473,0.01392 -0.241473,0.01387 -0.01381,0.238859 -0.01381,0.238854 0.220782,0.01415 c 0.121434,0.0078 0.236311,0.0077 0.255281,-1.01e-4 0.01897,-0.0078 0.0345,-0.127941 0.0345,-0.266904 z m 0.42545,0.261608 0.12648,-0.0037 v -0.252974 -0.252968 h -0.229974 -0.229961 v 0.245302 c 0,0.270426 0.01568,0.304639 0.129609,0.282623 0.04256,-0.0083 0.134276,-0.01655 0.203846,-0.01848 z m -3.09288,-1.71678 v -0.103487 l 0.721695,-0.528935 c 0.396923,-0.290916 0.890912,-0.653124 1.097744,-0.804907 0.206845,-0.151782 0.63129,-0.462242 0.943233,-0.689913 0.311929,-0.227676 0.656231,-0.481221 0.76511,-0.563434 0.108879,-0.08222 0.219531,-0.149482 0.245893,-0.149482 0.02636,0 0.215476,0.125986 0.420235,0.279976 0.204772,0.153986 0.400339,0.290732 0.434616,0.303883 l 0.06231,0.02392 v -0.234894 -0.234895 h 0.597926 0.597927 v 0.705121 0.705117 l 0.218474,0.155659 c 0.120157,0.08562 0.48236,0.351749 0.804902,0.59141 l 0.586428,0.435746 v 0.106304 0.106307 H 33.253242 29.50469 Z"
       style="fill:#000000;stroke-width:0.130378"
       id="house0" />
    <path
       d="m 9.981052,74.330927 v -2.273354 l -0.07818,-0.01507 -0.07819,-0.01507 0.135678,-0.08735 c 0.187373,-0.120635 2.242646,-1.564223 2.536915,-1.781882 l 0.239497,-0.177149 h 0.276512 0.276513 l 0.344088,-0.356455 0.34409,-0.356457 0.381752,0.373388 0.381752,0.373391 0.344958,0.141147 c 0.189728,0.07763 0.484212,0.204545 0.654412,0.282033 0.170199,0.07748 0.319066,0.140881 0.330816,0.140881 0.01175,0 0.02773,-0.08564 0.0355,-0.190315 l 0.01414,-0.190314 0.379473,-0.0052 0.379473,-0.0052 -1.8e-5,0.372673 -1.8e-5,0.372672 0.885393,0.382436 c 0.486966,0.210339 1.055596,0.454282 1.263619,0.5421 l 0.378225,0.15966 -0.02345,0.03794 c -0.01289,0.02088 -0.02232,1.052878 -0.02095,2.293342 l 0.0025,2.255391 h -2.047577 -2.047578 v -0.648469 -0.648468 l -0.07681,-0.161864 -0.07681,-0.161863 -0.141665,-0.08639 -0.141665,-0.08639 h -0.137983 -0.137983 l -0.15225,0.09283 -0.15225,0.09282 -0.06622,0.158495 -0.06622,0.158497 v 0.645398 0.645399 H 12.05079 9.981039 Z m 0.919889,0.939513 v -0.413947 h -0.04599 -0.046 v 0.413947 0.413952 h 0.046 0.04599 z m 0.873895,0.206974 V 75.27044 H 11.383883 10.99293 l -0.0056,0.03448 c -0.0031,0.01899 -0.0092,0.112116 -0.01365,0.206978 l -0.0081,0.172479 h 0.404602 0.404602 z m 0.145841,0.126489 c 0.01022,-0.04425 0.01674,-0.224006 0.01449,-0.399413 l -0.0041,-0.318919 -0.05512,-0.01839 -0.05512,-0.01839 v 0.417788 0.417782 h 0.04063 c 0.02235,0 0.04899,-0.03623 0.05922,-0.08049 z m 0.360099,-0.333463 v -0.413947 h -0.05749 -0.05749 v 0.413947 0.413952 h 0.05749 0.05749 z m 0.873895,0.206974 V 75.27044 h -0.41395 -0.41395 v 0.206974 0.206978 h 0.41395 0.41395 z m 0.137983,-0.206974 v -0.413947 h -0.046 -0.04599 v 0.413947 0.413952 h 0.04599 0.046 z m 2.859892,1.06e-4 -0.01476,-0.414053 h -0.04273 -0.04273 v 0.413947 0.413952 l 0.05749,1.06e-4 0.05749,1.06e-4 z m 0.865661,0.206868 V 75.27044 h -0.390953 -0.390953 v 0.206974 0.206978 h 0.390953 0.390953 z m 0.183977,-0.210804 v -0.417787 l -0.05749,0.01904 -0.05749,0.01904 -0.01329,0.398741 -0.01329,0.39874 h 0.07078 0.07078 z m 0.321962,0.0037 v -0.413947 h -0.04599 -0.04599 v 0.413947 0.413952 h 0.04599 0.04599 z m 0.873894,0.206974 v -0.206987 h -0.41395 -0.41395 v 0.206974 0.206979 h 0.41395 0.41395 z m 0.137985,-0.206974 v -0.413947 h -0.04599 -0.04599 v 0.413947 0.413952 h 0.04599 0.04599 z m -6.761189,-0.231764 v -0.185765 l -0.399425,0.01328 -0.399423,0.01328 0.0043,0.149482 c 0.0023,0.08222 0.0062,0.159831 0.0085,0.17248 0.0023,0.01263 0.18011,0.023 0.395134,0.023 h 0.390953 z m 1.371113,-0.0097 0.01428,-0.172479 h -0.416728 -0.416726 v 0.153317 c 0,0.08432 0.01457,0.167879 0.03237,0.185687 l 0.03237,0.03236 0.370079,-0.01318 0.370081,-0.01318 z m 3.872258,0.01152 v -0.183981 h -0.390953 -0.390953 v 0.183981 0.183977 h 0.390953 0.390953 z m 1.371111,-0.01152 0.01428,-0.172479 h -0.416726 -0.416727 v 0.153317 c 0,0.08432 0.01457,0.167879 0.03237,0.185687 l 0.03237,0.03236 0.370081,-0.01318 0.370079,-0.01318 z m -7.774086,-1.844067 -0.01325,-0.444624 -0.04599,-0.01125 -0.046,-0.01125 -0.01333,0.433501 c -0.0073,0.238421 -0.0015,0.464382 0.01301,0.50213 l 0.02634,0.06863 0.04624,-0.04624 0.04624,-0.04624 z m 1.196377,-4.61e-4 -0.01378,-0.444209 -0.04599,-0.01116 -0.04599,-0.01116 -0.01333,0.433497 c -0.0073,0.238421 -0.0015,0.464381 0.01301,0.50213 l 0.02634,0.06863 0.04676,-0.04676 0.04676,-0.04676 z m 1.56394,0.250176 0.0139,-0.233765 h -0.485347 -0.485345 v 0.222305 c 0,0.122271 0.0086,0.230935 0.01914,0.241473 0.01052,0.01056 0.222675,0.01567 0.471443,0.01148 l 0.452306,-0.0077 z m 0.183328,-0.249553 -0.01325,-0.444625 -0.04599,-0.01125 -0.046,-0.01125 -0.01333,0.433497 c -0.0073,0.238421 -0.0015,0.464382 0.01301,0.50213 l 0.02634,0.06863 0.04624,-0.04624 0.04624,-0.04624 z m 1.573556,0.242708 v -0.22692 h -0.482942 -0.482942 v 0.222305 c 0,0.122271 0.0085,0.230935 0.01897,0.241473 0.01043,0.01056 0.227756,0.01263 0.482942,0.0046 l 0.463975,-0.01457 z m 0.174235,-0.242708 -0.01325,-0.444625 -0.04599,-0.01125 -0.046,-0.01125 -0.01333,0.433497 c -0.0073,0.238421 -0.0015,0.464382 0.01301,0.50213 l 0.02634,0.06863 0.04624,-0.04624 0.04624,-0.04624 z m 0.561677,0.01581 v -0.454517 l -0.04302,-0.0266 -0.04302,-0.0266 -0.01447,0.48784 c -0.01472,0.496211 -0.0091,0.542119 0.06093,0.498825 l 0.03958,-0.02448 z m 1.011879,0.227261 v -0.227261 h -0.482943 -0.482942 v 0.228307 0.228307 l 0.448447,0.01318 c 0.246645,0.0072 0.463968,0.0068 0.482941,-9.22e-4 0.01897,-0.0078 0.0345,-0.116482 0.0345,-0.241472 z m 0.174234,-0.243049 -0.01325,-0.444625 -0.046,-0.01125 -0.04599,-0.01125 -0.01333,0.433497 c -0.0073,0.238421 -0.0015,0.464382 0.01301,0.50213 l 0.02634,0.06863 0.04624,-0.04624 0.04624,-0.04624 z m 1.573555,0.242708 v -0.22692 h -0.459945 -0.459944 l -10e-5,0.241472 -1.01e-4,0.241468 0.460046,-0.01457 0.460044,-0.01457 z m 0.183978,-0.256463 v -0.484061 l -0.05546,0.01848 -0.05546,0.01848 -0.0041,0.456789 c -0.0043,0.484609 0.0041,0.542884 0.07216,0.500817 l 0.04282,-0.02646 z m -7.221133,0.259514 v -0.229971 h -0.459944 -0.459946 v 0.229971 0.229976 h 0.459946 0.459944 z m 0.772017,-0.230188 -0.01311,-0.460159 -0.046,-0.01129 -0.04599,-0.01129 -0.01311,0.471443 -0.01311,0.471444 h 0.07221 0.07221 z m 1.747791,0 -0.01311,-0.460159 -0.046,-0.01129 -0.04599,-0.01129 -0.01311,0.471443 -0.01311,0.471444 h 0.07221 0.07221 z m 3.508024,0.391171 c 0.0014,-0.03794 0.0025,-0.203525 0.0025,-0.367956 0,-0.164432 -0.0012,-0.352432 -0.0025,-0.417783 l -0.0025,-0.118819 -0.05025,0.01673 -0.05025,0.01673 -0.0072,0.470047 -0.0072,0.470047 0.05749,-2.3e-5 0.05749,-2.3e-5 z m -6.027731,-0.678417 10e-5,-0.195477 -0.460045,0.01457 -0.460046,0.01457 v 0.180924 0.18092 h 0.459946 0.459944 z m 1.783158,-0.03586 -0.02223,-0.23135 0.03938,-0.02434 c 0.02166,-0.01337 0.03938,-0.05416 0.03938,-0.09062 v -0.06628 h -0.528936 -0.528937 v 0.06628 c 0,0.109258 0.08064,0.128485 0.510019,0.121635 l 0.409871,-0.0065 v 0.05007 0.05007 l -0.42545,-0.0096 -0.425448,-0.0096 -0.01414,0.190799 -0.01414,0.190794 h 0.491439 0.491438 z m 1.758316,0.05063 v -0.180751 l -0.408773,-0.01475 c -0.224825,-0.0081 -0.442149,-0.0081 -0.482942,1.11e-4 l -0.07417,0.01489 v 0.180606 0.180602 h 0.482942 0.482942 z m 1.738937,-0.01475 -0.01414,-0.195477 -0.0345,0.01148 c -0.01897,0.0063 -0.231122,0.01152 -0.471444,0.01152 h -0.436947 v 0.183977 0.18398 h 0.485586 0.485587 z m 1.756643,0.01148 v -0.183976 l -0.379454,-0.0037 c -0.2087,-0.0018 -0.415675,-0.01046 -0.459945,-0.01895 l -0.08049,-0.0154 v 0.202908 0.202903 h 0.459944 0.459945 z m -3.497038,-0.29806 c 0.0261,-0.01613 0.04745,-0.05915 0.04745,-0.0956 v -0.06628 h -0.528937 -0.528936 v 0.05979 c 0,0.03287 0.01965,0.07946 0.04367,0.103487 l 0.04367,0.0437 0.437815,-0.0079 c 0.240799,-0.0041 0.459169,-0.02107 0.485268,-0.0372 z m 1.78665,-0.08139 0.01534,-0.08049 h -0.501646 c -0.275905,0 -0.514716,0.01309 -0.530691,0.02904 -0.01597,0.01595 -0.01117,0.06254 0.01067,0.103487 l 0.03971,0.07444 0.475643,-0.023 0.475641,-0.023 z m -5.280772,0.08425 c 0,-0.0106 0.01257,-0.05197 0.02792,-0.09199 l 0.02792,-0.07275 h -0.533858 -0.533856 v 0.06133 c 0,0.03374 0.0138,0.07512 0.03066,0.09199 0.03276,0.03277 0.981216,0.04379 0.981216,0.01143 z m 7.031123,-0.0425 0.05123,-0.06173 -0.03026,-0.03029 c -0.03778,-0.0378 -1.001389,-0.04033 -1.038973,-0.0028 -0.01512,0.01512 -0.01636,0.05651 -0.0028,0.09199 l 0.02475,0.06449 h 0.472388 0.47239 z m -4.961371,-1.596855 v -0.140756 l -0.171743,0.01429 -0.171741,0.01429 -0.0095,0.126484 -0.0095,0.126485 h 0.181221 0.181223 z m 0.459944,1.34e-4 v -0.140632 l -0.19133,0.01415 -0.191332,0.01415 -0.01288,0.08936 c -0.01957,0.135851 0.01678,0.16361 0.214275,0.16361 h 0.181263 z m 0.413951,-1.34e-4 v -0.140756 l -0.171443,0.01429 -0.171442,0.01429 0.0053,0.103487 c 0.0029,0.05692 0.0077,0.11384 0.01046,0.126484 0.0028,0.01263 0.07755,0.023 0.166091,0.023 h 0.160981 z m -1.554919,-0.305754 c 0.134241,-0.144398 0.406914,-0.433294 0.605939,-0.641992 l 0.361863,-0.379456 0.331938,0.354527 c 0.182566,0.194989 0.452563,0.484664 0.599995,0.643721 l 0.268057,0.289191 0.04801,-0.04801 0.04801,-0.04801 -0.208626,-0.218184 c -0.114743,-0.120004 -0.382906,-0.400557 -0.595916,-0.623457 -0.213009,-0.2229 -0.39419,-0.4247 -0.402622,-0.448447 -0.03762,-0.105948 -0.161906,-0.0087 -0.632113,0.494618 -0.27633,0.295788 -0.561243,0.594793 -0.633142,0.664454 l -0.130725,0.12666 0.02995,0.04846 c 0.04401,0.07121 0.04444,0.07091 0.309383,-0.214077 z m 0.681024,0.0096 v -0.114988 h -0.173947 -0.173946 l -0.0095,0.114988 -0.0095,0.114983 h 0.183463 0.183462 z m 0.459944,0 v -0.114988 h -0.206975 -0.206975 v 0.114988 0.114983 h 0.206975 0.206975 z m 0.413951,0 v -0.114988 h -0.1776 -0.1776 l 0.02198,0.114988 0.02198,0.114983 h 0.155619 0.15562 z"
       style="fill:#000000;stroke-width:0.130378"
       id="house3" />
    <path
       d="m 38.995594,75.206788 -0.01215,-1.395519 -0.128726,0.101279 -0.128725,0.101279 -0.08975,-0.08122 c -0.04936,-0.04467 -0.08975,-0.09432 -0.08975,-0.110337 0,-0.016 0.293296,-0.276699 0.65177,-0.5793 0.358473,-0.302601 0.821482,-0.695068 1.028908,-0.872148 0.207427,-0.17708 0.535055,-0.453143 0.728064,-0.613476 l 0.350927,-0.29152 V 71.00133 70.536833 l -0.137505,0.131735 -0.137503,0.131734 -0.03132,-0.0313 -0.03132,-0.0313 0.09284,-0.103307 c 0.05106,-0.05682 0.347912,-0.403419 0.659666,-0.770223 0.311754,-0.366809 0.586357,-0.674619 0.610229,-0.684023 0.02387,-0.0094 0.09202,0.04232 0.151431,0.114988 l 0.108027,0.132085 0.0017,-0.05749 0.0017,-0.0575 h 0.114984 0.114987 v 0.199054 0.199049 l 0.43994,0.513415 0.43994,0.51341 -0.02786,0.04508 -0.02786,0.04508 -0.134765,-0.148113 -0.134765,-0.148118 -0.0013,0.464603 -0.0013,0.464603 0.791305,0.662265 c 0.435217,0.364242 0.885388,0.745958 1.000379,0.848256 0.114992,0.102297 0.37983,0.328032 0.58853,0.501627 0.2087,0.1736 0.379455,0.329886 0.379455,0.34731 0,0.01743 -0.04039,0.06823 -0.08975,0.1129 l -0.08975,0.08122 -0.128726,-0.101278 -0.128726,-0.101279 -0.01215,1.396422 -0.01215,1.396427 -0.838751,-0.0083 c -0.461311,-0.0046 -1.081945,-0.01009 -1.379184,-0.0124 l -0.540436,-0.0041 v -1.01188 -1.01188 h -0.574052 -0.57405 l -0.01237,1.013304 -0.01237,1.0133 -1.367689,0.0101 -1.367688,0.0101 z m 1.293936,0.386589 0.05351,-0.03305 -0.01324,-0.191914 -0.01323,-0.191909 -0.241111,-0.01392 -0.241111,-0.01392 v 0.224712 c 0,0.12359 0.0086,0.233332 0.0191,0.243874 0.03099,0.03112 0.377862,0.01212 0.436087,-0.02388 z m 0.499202,0.02531 0.103487,-0.0053 v -0.229971 -0.229971 h -0.229972 -0.229972 v 0.250212 0.250212 l 0.126484,-0.01494 c 0.06957,-0.0083 0.173055,-0.01733 0.229973,-0.02024 z m 3.497984,-0.223716 0.0139,-0.241472 h -0.232378 -0.232375 v 0.25549 0.255491 l 0.218473,-0.01401 0.218475,-0.01401 z m 0.551933,-4.61e-4 0.0139,-0.24084 h -0.232376 -0.232376 v 0.256541 0.256537 l 0.218474,-0.01572 0.218473,-0.01567 z m -4.519997,-0.620298 0.0052,-0.21847 h -0.244743 -0.244742 v 0.232372 0.232378 l 0.239565,-0.01392 0.239563,-0.01392 z m 0.573567,0.01152 v -0.229971 h -0.229972 -0.229972 v 0.229971 0.229971 h 0.229972 0.229972 z m 3.403591,0 v -0.229971 h -0.229972 -0.229972 v 0.229971 0.229971 h 0.229972 0.229972 z m 0.551934,0 V 74.555761 H 44.617772 44.3878 v 0.229971 0.229971 h 0.229972 0.229972 z M 42.272053,73.359905 V 73.12993 h -0.229972 -0.229973 v 0.229976 0.229971 h 0.229973 0.229972 z m 0.597928,0 V 73.12993 h -0.229975 -0.229971 v 0.229976 0.229971 h 0.229971 0.229973 z m -0.597928,-0.597928 v -0.229976 h -0.229972 -0.229973 v 0.229976 0.229971 h 0.229973 0.229972 z m 0.597928,0 v -0.229976 h -0.229975 -0.229971 v 0.229976 0.229971 h 0.229971 0.229973 z m -0.146567,-1.3269 0.01441,-0.145153 H 42.343957 41.95009 v 0.134929 0.134929 l 0.126485,0.01457 c 0.06957,0.008 0.240321,0.01258 0.379454,0.01023 l 0.25297,-0.0041 z m -0.01441,-0.743081 V 70.255051 H 42.341046 41.97309 l -0.01348,0.387105 c -0.0074,0.212911 -0.0025,0.415588 0.01081,0.450396 l 0.02428,0.06329 0.357154,-0.01346 0.357154,-0.01346 z"
       style="fill:#000000;stroke-width:0.130378"
       id="house2" />
    <rect
       style="fill:none;fill-opacity:0.53849;stroke:#ff0000;stroke-width:2;stroke-linecap:round;stroke-linejoin:round;stroke-opacity:1;stroke-dasharray:none"
       id="user_color"
       width="48.688324"
       height="81.559807"
       x="2.6458378"
       y="2.0200958"
       ry="3" />
    <path
       id="background-5"
       style="fill:#000000;fill-opacity:0.53849;stroke-width:0.7;stroke-linecap:round;stroke-linejoin:round"
       d="M 43.396836,0 0.08578633,83.318429 c 0.320066,1.312173 1.49875277,2.280427 2.91196677,2.281514 H 10.583336 L 53.894387,2.2815145 C 53.574142,0.96860216 52.394109,0 50.979836,0 Z" />
  </g>
</svg>
